<?xml version="1.0" encoding="utf-8"?>
<!-- Generator: Adobe Illustrator 19.2.1, SVG Export Plug-In . SVG Version: 6.00 Build 0)  -->
<svg version="1.1" id="Layer_1" xmlns="http://www.w3.org/2000/svg" xmlns:xlink="http://www.w3.org/1999/xlink" x="0px" y="0px"
	 viewBox="0 0 100 145" style="enable-background:new 0 0 100 145;" xml:space="preserve">
<style type="text/css">
	.st0{fill:#F7D3D9;}
</style>
<g>
	<path class="st0" d="M93.1319,6.49099c0.01402-0.26161-0.34296-0.4681-0.67413-0.03983l0.20055,0.74829L93.1319,6.49099z"/>
	<path class="st0" d="M89.6591,8.09872c-0.22445,0.6731-0.34964,1.59638,0.37533,1.76162
		c-0.00063-0.90485,0.29723-0.81418,0.2424-1.83887c0.33089-0.42925,0.82496-0.49413,0.93382-0.2526
		c0.01527-0.25635,0.7046-0.47301,0.61452-0.97793c-0.86926,0.11036-1.51756,0.70683-1.88151,1.65969
		C89.69781,8.48106,89.71333,8.22023,89.6591,8.09872z"/>
	<path class="st0" d="M48.49146,40.17974l0.3236-0.12197C48.71414,40.07246,48.6049,40.11676,48.49146,40.17974z"/>
	<path class="st0" d="M20.70547,56.61496c0.20925-0.12974,0.26818-0.23676,0.24996-0.29663
		C20.77505,56.46428,20.62919,56.58868,20.70547,56.61496z"/>
	<path class="st0" d="M15.49048,58.52359c0.11327-0.03816,0.20824-0.07014,0.31064-0.10463
		C15.66207,58.41899,15.53516,58.44407,15.49048,58.52359z"/>
	<path class="st0" d="M48.49146,40.17974l-0.83418,0.30776C47.73111,40.70429,48.11549,40.37525,48.49146,40.17974z"/>
	<path class="st0" d="M85.51147,14.24842c0.1115-0.1482,0.18034-0.29739,0.22656-0.45189
		c-0.09017,0.12292-0.17987,0.23926-0.27759,0.3541C85.47945,14.18323,85.49577,14.21109,85.51147,14.24842z"/>
	<path class="st0" d="M59.75058,31.45837l0.20978-0.15687c0.01564-0.10744,0.01753-0.22506,0.00914-0.34961L59.75058,31.45837z"/>
	<path class="st0" d="M68.29354,24.67134c-0.20724,0.13585,0.08707,0.63785,0.17104,0.89343
		c-0.04007-0.27245,0.03087-0.47544,0.17124-0.64644C68.57009,24.83063,68.46269,24.74927,68.29354,24.67134z"/>
	<path class="st0" d="M82.13148,14.19693l0.17281-0.26787C82.26199,14.0016,82.17828,14.11018,82.13148,14.19693z"/>
	<path class="st0" d="M53.36968,35.96235c-0.0645-0.05893-0.13997-0.09754-0.20049-0.11034
		C53.21121,35.91106,53.28287,35.94432,53.36968,35.96235z"/>
	<path class="st0" d="M92.62907,12.78349c0.04105,0.00826,0.06689-0.00453,0.10235-0.0022
		C92.6722,12.7183,92.63139,12.6992,92.62907,12.78349z"/>
	<path class="st0" d="M95.30576,0.03574l0.03333,0.17569c0.10918,0.01737,0.21651,0.03516,0.32298,0.0337L95.30576,0.03574z"/>
	<path class="st0" d="M3.41996,63.60053c0.03815-0.01276,0.05108-0.01709,0.08667-0.029
		C3.84015,63.34021,3.61552,63.45982,3.41996,63.60053z"/>
	<path class="st0" d="M72.65042,124.83712c-0.35468-1.11885,1.66177,0.78799,0.98043-0.75613
		C73.57024,124.3434,71.98591,123.65372,72.65042,124.83712z"/>
	<path class="st0" d="M85.25057,14.38668c-0.1049,0.10586-0.21271,0.21218-0.32784,0.31104
		C85.08642,14.57182,85.18726,14.47641,85.25057,14.38668z"/>
	<path class="st0" d="M73.63085,124.08099l0.0037-0.00352l-0.07381-0.15598
		C73.58975,123.98747,73.60614,124.02477,73.63085,124.08099z"/>
	<path class="st0" d="M20.64179,79.41039c0.01974-0.10983-0.01155-0.22559-0.04816-0.34084
		C20.5661,79.12222,20.56829,79.21167,20.64179,79.41039z"/>
	<path class="st0" d="M5.58316,68.38094l0.45648,0.37953C5.88044,68.59788,5.72846,68.48052,5.58316,68.38094z"/>
	<path class="st0" d="M28.36717,84.0429c0.16018,0.17448,0.17576,0.28521,0.47696,0.41344
		c-0.00619-0.0409-0.01725-0.07468-0.03534-0.11375C28.66911,84.33695,28.52475,84.2747,28.36717,84.0429z"/>
	<path class="st0" d="M35.77221,89.75038c-0.01136-0.0653-0.04212-0.13191-0.06294-0.19821
		c-0.07854-0.05017-0.17021-0.10871-0.25108-0.16036L35.77221,89.75038z"/>
	<path class="st0" d="M93.29543,41.32745c0.15914-0.20802,0.33593-0.33842,0.51145-0.44074
		C93.3996,41.03712,93.23479,39.65906,93.29543,41.32745z"/>
	<path class="st0" d="M85.28895,14.01361c0.05783,0.14447,0.04707,0.25199-0.03838,0.37306
		c0.0724-0.08145,0.14192-0.15962,0.20987-0.23604C85.42264,14.06903,85.37232,14.00543,85.28895,14.01361z"/>
	<path class="st0" d="M31.39907,80.64083l1.15514,0.96821C32.25052,81.31315,31.82978,80.96231,31.39907,80.64083z"/>
	<path class="st0" d="M94.29717,108.71639l-0.07367-0.34166C94.21219,108.5069,94.23044,108.62823,94.29717,108.71639z"/>
	<path class="st0" d="M36.14502,84.26784c0.08811,0.3241,0.2409,0.59081,0.42617,0.83085
		c0.07711,0.00249,0.15607,0.01708,0.22919-0.00931L36.14502,84.26784z"/>
	<path class="st0" d="M93.81298,40.88342l-0.0061,0.0033L93.81298,40.88342z"/>
	<path class="st0" d="M92.3116,31.07164c0.00303,1.4224,0.74945,0.65785,1.18801,0.95362
		c0.23753,1.69444-0.54657,0.79309-0.92522,1.37608c0.21449,1.05717,0.91983,1.86049,0.90115,2.65121
		c-0.12368,0.06068-0.16705,0.21494-0.32551,0.03694c0.6166,1.11229,0.07487,3.32576,0.84795,4.62088
		c-0.06561,0.09801-0.12843,0.14782-0.18501,0.17305c0.37589-0.21658,0.76035-0.25432,1.03487-0.21474
		c0.02161,0.6373,0.494,1.17656,0.00285,1.42321c0.0092-0.39095-0.19067-0.42073-0.34752-0.60155l0.22408,0.66502
		c-0.70263,0.61106-0.25854-0.90852-0.78471-0.90135c0.24914,1.29947,0.85805,2.8095,0.67082,3.81037
		c-0.69243,0.2181-0.26586-2.33086-0.86598-0.99052l0.24446-1.54816c-1.08067,1.19523,0.06418-0.93939-1.09477,0.161
		c-0.17373,2.0351,0.38541,2.26863,0.21018,4.29855c0.39258,0.45127,0.56977-0.15864,0.96234,0.29263
		c0.73359,2.87218-1.71751,2.29211-0.76235,4.39808c0.4708,0.54209,1.35346,0.74271,0.90866,2.25748l-0.7932-0.50357
		c-0.05054,1.96881,1.14547,1.10787,0.64477,3.17593c-0.31395-0.36206-0.28153-1.54298-0.37103-1.24404
		c-0.60254,1.34359,0.45881,0.93829,0.4728,1.9645l-0.69341,0.22213c0.13813,2.09343,0.67245,4.39415,0.83105,6.71283
		c-0.20873-0.12556-0.432-0.52014-0.63751,0.02554c0.38777,2.92144,0.00026,6.24789-0.37417,9.07621l0.61563,1.07017
		c-0.00355,0.25082-0.26513,0.46906-0.38534,0.19906c-0.21286,1.10313,0.38179,0.05176,0.62527,0.57729
		c0.05052,0.62526-0.3341,0.83154-0.51989,0.43723c0.53587,1.93436,1.17307,5.51485,0.55727,7.56884l-0.18398-0.39634
		c-0.22211,1.596,1.25623,1.78047,0.71602,3.26525l-0.11032-0.28179c-0.21326,3.4601,0.3892,7.27259-0.48201,9.92231
		c0.87248,0.48966-0.33923,3.4265,0.87093,3.63229c-0.5713,1.98195-0.7944,1.41962-1.15899,4.20486
		c-0.04535,0.74294,0.76894,1.09615,0.90739,2.01234l-0.6309,0.03106l0.67912,1.23702l-0.74561,0.67345l0.1737,0.85872
		c0.03238-0.34351,0.27341-0.7328,0.45613-0.68314c0.30375,1.34085-0.39526,3.28402-0.71808,3.32172l0.57717,3.17406
		c-0.25485-0.06715-0.34913-0.59872-0.51682-1.01775c0.66708,1.6894-0.66056,0.31757-0.04907,1.86568
		c0.14025-0.21056,0.37743,0.10761,0.50546,0.14117c-0.37083,0.78107-0.35022,2.54671-0.17187,3.85115l-0.43828-0.2448
		c-0.07836,2.36124,0.2767,4.97174,0.30487,7.62041c0.18993-0.95275,0.94675-0.74479,1.02982,0.03089l-0.66299,0.31962
		c0.41959,0.49584,0.24136-0.81463,0.75967,0.20792c-0.06347,0.99036-0.74926,0.67548-0.97383,0.11039l0.24777,1.19958
		c-0.19846,0.07332-0.30734-0.20728-0.56221-0.27724c0.42111,0.48779-0.64095,2.08524,0.088,2.78751l-0.19746,0.07051
		c0.0153,1.3237,0.08442,2.28496,0.15758,3.18484c0.05592,0.7426,0.10806,1.43457,0.175,2.3232
		c0.5775,0.10789,0.45181,0.27644,0.92462,0.8152c-0.08775,0.29291-0.24435,0.46915-0.37304,0.56544
		c-0.0649,0.0502-0.12022,0.08994-0.16061,0.14104c-0.14886-0.12914-0.26434-0.21631-0.36403-0.25658
		c-0.06321,0.13979-0.05896,0.29079,0.00097,0.48102c0.05202,0.1844,0.15771,0.41339,0.09847,0.58107
		c-0.29437-0.80551-0.77148-1.03838-0.55054-1.35291c-0.19621-0.06148-0.54627-0.27148-0.85583-0.39403
		c-0.09634-0.04517-0.14079-0.04623-0.29852-0.13c-0.18587-0.10291-0.38229-0.21164-0.59581-0.32983
		c-0.43357-0.23166-0.93649-0.50032-1.56158-0.83432c0.10915,0.36249,0.33461,0.63812,0.0829,0.67619
		c-0.46381-0.241-0.79336-0.89088-0.58106-1.04308l0.1395,0.04005c-1.50283-0.64362-2.6769-2.13129-3.7598-3.5403
		c-1.0864-1.41473-2.08315-2.77779-3.37952-3.26375l0.1407,0.05911l-2.28954-1.44608
		c-0.79652-0.9328,0.79462,0.24161,0.38742-0.62996c-2.64262-1.40917-3.07542-3.32693-5.13905-4.63847
		c-0.14481-2.3957-4.59369-4.68687-5.6607-7.16213l-0.15915,0.35863c-0.70922-0.21463-0.40001-0.70795-0.67553-1.10963
		c-0.15408,0.24721,0.25909,0.73386-0.16407,0.58392c-4.16725-3.60597-7.67571-8.38073-11.62162-12.45296
		c-1.45865-1.47115-2.13768,0.60264-3.4787-1.78574l1.00102-0.00701c-3.61752-2.20222-6.36433-5.6704-9.92479-7.77635
		c0.28548,0.03758,0.42135-0.11324,0.72325,0.1461c-0.33354-0.94202-2.42997-2.06099-2.6972-1.75796
		c-0.46087-0.43813,0.11743-0.37307-0.055-0.77873c-0.48466-0.77357-2.07232-0.89111-2.11804-1.56146
		c-0.01004-0.1116,0.28803,0.03025,0.43422,0.10136c-0.5785-0.18101-2.00838-1.69012-1.94035-0.91381
		c-1.02867-1.16371-2.444-1.62496-3.1922-2.64584c-1.01926,0.0145-1.88664-1.83994-2.63424-1.28427
		c0.65119-0.66441-1.66467-2.23825-2.70965-2.45619c0.42785-0.02988-0.49947-0.73453,0.03716-0.81785
		c-0.89338-0.65069-1.80714-1.11803-1.93614-0.62062c-0.96554-2.12183-3.82472-1.68234-3.91462-3.51017
		c-2.95752-1.50555-5.62573-2.97287-8.19191-4.43069c0.60882-0.70746,2.74675,1.74748,3.18608,0.88816
		c-2.52598-1.27232-4.29963-1.51792-6.4832-3.23198c-0.53106-0.49731,0.56135-0.11137,0.85202-0.11025
		c-1.27449-0.60544-2.39248-1.36082-3.48759-2.08289l-0.37436-0.2414c-0.09317-0.05404-0.18968-0.10491-0.29719-0.15324
		c-0.21605-0.0973-0.47215-0.18203-0.86844-0.28397c0.12999-0.0193,0.35166,0.00986,0.51437,0.02953
		c-0.18863-0.08309-0.0971-0.22147-0.7588-0.14422l0.3365,0.07845c-0.3119,0.16216-0.91274,0.15791-1.72442-0.02173
		c-0.7872-0.1642-1.75965-0.48766-2.12013-0.52552c0.74745,0.11728,1.02765,0.09464,1.14981,0.04388
		c0.02959-0.01329,0.04807-0.02913,0.05888-0.04661c0.00541-0.00874,0.00889-0.01791,0.01087-0.0274
		c0.01842-0.00874,0.0695-0.01629,0.10181-0.02486c0.13377-0.03297,0.28066-0.06918,0.42381-0.10445
		c0.27735-0.06819,0.55285-0.12453,0.87523-0.11392c0.32862,0.00765,0.68031,0.0936,1.26246,0.23739
		c-0.04294-0.06752-0.21869-0.20401-0.72041-0.27648c0.3807-0.09029,0.6602-0.04175,1.0083,0.14625
		c0.26182-0.37766-0.52864-0.49564,0.27708-0.86874c0.19875,0.13074,0.12782,0.25135,0.33393,0.41783
		c-0.14227-0.3728-0.00259-0.87309,0.93056-1.13391c-0.00909,0.07308,0.03868,0.12794,0.04387,0.18666
		c0.00936,0.05649-0.059,0.13552-0.1356,0.16933c0.09957-0.05763,0.1973-0.11419,0.29353-0.16987
		c0.11819-0.07471,0.23451-0.14825,0.34928-0.22081c0.22686-0.15022,0.44244-0.30605,0.65147-0.4648
		c0.41171-0.32777,0.81023-0.64505,1.21372-0.96627c0.80783-0.63938,1.66245-1.24015,2.87686-1.6367
		c-0.26066,1.12115,0.9003-0.12732,1.36649,0.47963l1.0969-0.83959l-0.65409-0.07302
		c1.05851-0.54649,1.72564-1.53065,2.74612-1.78847l-0.63271,0.69198l1.90148-1.17258l-1.25178,0.3358
		c0.87543-0.91018-0.57146-0.79163,0.92428-1.34392c-0.24218,0.22549,1.04877-0.55244,1.80209-0.46671l-0.00252,0.00375
		c0.39588-0.49981,0.79791-1.01808,1.65614-1.27967c0.31848,0.10215,0.25193,0.82749,0.46098,0.89718
		c0.19394-0.8414,2.34758-1.51036,2.64749-2.46449c-0.13092,0.26321,0.0548,0.61406,0.16637,0.64661l0.16208-0.69578
		c0.55713-0.13448,0.66709-0.10572,0.74974,0.21654c1.47651-0.75645-0.9388-0.57273,0.96443-1.2058
		c-0.11177,0.11427-0.00925,0.14381-0.24659,0.37475c1.80869-0.81973,3.13029-2.19537,4.80313-2.92906
		c0.8551,0.37772-1.2532,0.99153-0.39571,1.22693c2.15597-1.50587,4.14692-3.60723,6.36737-4.82523l-0.44153,0.18419
		c-0.28956-1.10551,1.87066-0.57058,2.66984-1.69654c-0.21903,0.23762-0.0172,0.72901-0.01184,0.5815
		c1.55646-0.79039,2.83823-2.14499,4.80993-3.91263l-0.11292,0.41397c0.9853-0.36658,2.30867-1.39013,3.29507-1.9049
		c0.11224-0.41358,0.65017-0.74449,0.10665-0.85491c3.6917-0.67405,4.80441-4.42139,7.98755-5.17041
		c-0.28797,0.21744-0.54632,0.70908-0.31462,0.539l1.91281-1.73928c-0.44734-0.25699-0.44289-0.02808-1.09662-0.00172
		c0.09317-0.41833,0.54351-1.02308,1.05339-1.4013c-0.73717,0.93707,0.4651,0.60094,1.02628,0.5132
		c-0.15481-0.06563-0.11404-0.29494-0.23706-0.3872c1.57189-0.1497-0.39845-0.89422,1.39079-1.56361l0.07483,0.25624
		c0.46409-0.52058,0.76101-1.16647,1.38748-1.56247c0.57822,0.24407-0.41896,0.64803-0.18026,1.0329
		c0.80269-0.66249,0.97884-2.07126,2.05724-2.21749c-0.25338,0.38956-0.75272,0.77996-1.00753,1.16935
		c1.20491-0.12179,1.19913-0.32357,1.86362-0.70997l-0.06824,0.03453l1.55257-0.87775L68.894,27.98655
		c0.11693-1.93169,1.89457-1.87162,2.6618-3.6967c-0.75882,1.75397,0.10618,0.57281,0.39883,1.13385
		c0.45668-0.14885,1.10887-0.42908,1.06921-0.17237c0.3291-0.90221,1.31695-0.58479,1.74375-1.89964
		c0.16847,0.11917,0.68948-0.5585,0.86981-0.05418c0.72253-0.81777-0.41884-0.10054-0.51051-0.35103
		c0.81506-1.6007,3.54069-1.87388,4.70274-4.18281c1.28869-1.6539,1.12479-2.40859,2.32587-3.91853
		c0.69556-0.189,0.09248,0.88917,0.09248,0.88917c0.98043-0.46328,1.50841-1.04744,2.07574-1.87685
		c-0.02805,0.26289,0.22137,0.23308,0.59262,0.19553c0.5425-0.57272-0.10658-0.89171,0.85413-1.3787
		c0.02062,0.2837,0.09514,0.70018-0.03244,1.12224c0.55731-0.76542,0.97571-1.65975,1.55641-2.4415
		c0.42514,0.08072-0.06388,0.77771-0.15801,1.17361c0.69421-0.83936,1.83035-2.13764,1.68329-2.77345l-0.63242,0.3373
		c0.2636-0.29201,0.47108,0.20257,0.33154,0.47698c-0.36611,0.9584-1.10532,0.77095-1.27724,0.66352l0.41336-0.55627
		c-1.31615-0.37761-1.88162,1.99491-2.9396,2.88013l-0.15688-1.01472l-0.55524,1.47547
		c-0.36951,0.03986-0.83986-0.1733-0.42917-0.72626c-1.0041,0.35538-0.43471,0.81406-1.36942,1.03898
		c-0.11791,0.00822-0.11375-0.04995-0.07316-0.13338l-0.54729,0.8246c0.02104-0.25752-0.52143-0.34149,0.00149-0.63988
		c-1.614,0.77196-1.65176,2.31438-2.56482,2.26062l0.07291-0.13449c-1.59685,1.79728,0.24182,0.62146-0.61937,2.36264
		l-1.91837-0.37094l0.22968,0.62481c-0.20278,0.14225-0.6051,0.42158-0.6992,0.17369
		c-0.42057,0.91697,0.29648,0.10518,0.15334,0.75577c-1.27435,0.33327-2.32597,2.31922-3.17036,1.7289
		c-0.01967,0.63966,1.10125-0.452,0.34705,0.61987c-0.96306-0.59024-0.99421,1.09446-2.15616,1.39127
		c-0.09284-0.63632,0.88868-1.0551-0.26598-0.75475c0.08661,1.13313-1.76514,1.16786-2.35858,1.8793
		c0.42976,0.60013-1.33663,1.50268-2.3915,2.63663c-0.07838-0.25477-2.52957,1.4453-3.81656,2.10312l-0.04287-0.12479
		c0.23876,0.76308-1.00136,1.56187-1.77423,2.31384c-0.23743-0.38517-0.18925-0.64113,0.15359-1.14622l-0.8039,0.60058
		c-0.04536,0.33366-0.22091,0.6219-0.69304,1.07916l-0.13327-0.6006c-1.05299,0.81883-1.76767,2.13656-3.3721,2.85644
		c0.227,0.48138,1.96791,0.37188,0.69271,1.72727c-0.22148-0.19028-0.5601-0.54448-0.23888-0.9145
		c-0.10542,0.12067-0.31693,0.5133-0.64483,0.59746l0.31496-0.80776c-0.76262,0.28393-0.10147,0.56028-0.6398,0.88748
		c-0.22594-0.33544-0.54723,0.03438-0.66072-0.27842c0.10764-0.12423,0.54374-0.18046,0.64671-0.44819
		c-0.61909,0.35006-1.45533,0.64881-1.86243,0.5625c0.18349,0.15173,0.31585,0.44336-0.07608,0.78547
		c-1.0742,0.79775-0.65433-0.13212-1.40927,0.14867c-0.10256,0.41652-0.96429,0.67091-0.63675,1.17952
		c-0.3211,0.22391-0.54112,0.03433-0.75776-0.01307c-0.41269,0.61736-2.62843,1.87663-1.61866,1.97267l0.17104-0.06464
		c-0.02338,0.02529-0.05027,0.05437-0.07889,0.08531c0.00464-0.00314,0,0,0.00464-0.00314l-0.00464,0.00314
		c-1.54695,1.76934-4.08685,2.37709-5.84649,3.79539l-0.10709-0.17113c-1.00339,0.92346-2.43802,1.73836-3.01257,2.62746
		c-0.33288,0.21919-0.99502,0.18322-0.97665-0.10711c-0.79331,0.66729-0.77261,0.92123-2.2118,1.4164
		c0.69348-0.84172-0.46763-0.07928,0.76465-0.77471c-1.22808,0.55191-1.65234,0.43295-2.58358,1.65568
		c0.14439-0.69862-1.19087-0.02902-1.65239,0.43134l0.98775-0.17033c-0.56472,0.44335-1.12732,0.71762-1.69632,0.99946
		l-0.05446-0.7578c-2.7691,0.65133-3.51667,3.72797-6.02274,3.53286c-0.39448,0.76583,1.45825-0.43007,1.17161,0.36814
		c-1.1438,0.53331-2.76332,0.31793-3.10548,0.50664c-1.67929,0.50505-0.91496,1.65168-2.61126,2.30143
		c0.31559,0.0996,0.82393,0.57348-0.25973,1.40549c-1.15706,0.51191-1.84802-0.17349-1.24029-0.71638
		c0.25618-0.15905,0.42108-0.15936,0.44897-0.08076c0.31653-0.26819,0.73678-0.60853,0.17256-0.60755l-0.02821,0.29
		c-0.66795,0.0736-2.1792,0.90449-2.00878,0.36246c-0.7273,0.64828-0.17095,0.54232,0.50884,0.3243
		c-1.58662,0.44135-2.22405,1.17168-3.79872,1.7314c0.29697,0.00192,0.64035,0.1371,0.40823,0.2592
		c-2.30714,0.82739-0.74507,0.8916-2.17064,1.72859c-1.00399,0.09038-0.09888-0.94001-1.4405,0.08214
		c-1.01622,0.23039-0.47891-0.48076-0.20964-0.83778c-0.56803,0.54786-1.23203,0.79566-1.85299,0.94427
		c-0.15692,0.03309-0.30906,0.06519-0.45576,0.09615l-0.21798,0.04011c-0.06242,0.009-0.13986,0.02485-0.27054,0.06498
		c-0.45479,0.1306-0.88286,0.26277-1.24306,0.41042l1.18985-0.78335c-0.73122,0.47707-1.35325,0.76931-2.00257,1.07679
		c0,0,0.2696,0.00629,0.53918,0.01259c0.25605,0.01273,0.51211,0.02546,0.51211,0.02546
		c-0.7604,0.26831-1.37291,0.55714-1.53278,0.40971c-0.24106,0.29102,0.09204,0.35624,0.32635,0.48466
		c0.24262,0.12446,0.38195,0.31428-0.01361,0.74357c-0.52304,0.11227-1.07467,0.44819-1.59126,0.71236
		c-0.52156,0.26655-1.0334,0.47341-1.67156,0.4202c1.48458-0.58549,1.19493-0.62695,0.80517-0.66545
		c-0.39096-0.03792-0.9363-0.04706,0.29178-0.68923c-0.40735,0.27915-0.99286,0.55446-1.84327,0.86472
		c-0.21453,0.02232-0.09039-0.1048,0.06233-0.21853c-1.92954,0.59938-2.04563,0.85653-1.93997,1.08583
		c0.04518,0.11829,0.12644,0.23884,0.02753,0.40916c-0.04946,0.08517-0.14356,0.1826-0.31096,0.29899
		c-0.08375,0.05821-0.18588,0.1212-0.31051,0.19005c-0.06481,0.03419-0.13286,0.0701-0.20442,0.10785
		c-0.03042,0.01924-0.09062,0.03687-0.10101,0.05861l0.12374,0.07793c-1.11862-0.27815-0.72294,0.35706-0.06481,0.68163
		c-1.2103-0.77415,0.6719-0.29115,2.08358,0.27229c0.57948,0.53342,1.14222,0.82703,1.60532,1.02066
		c0.47057,0.19836,0.86319,0.31046,1.25473,0.57742l-0.75484-0.63461c0.8254,0.09273,1.47273,0.55785,2.57913,1.1216
		c-0.18665,0.21663-1.12477-0.48077-0.89312-0.18674c0.92546,0.2077,1.32931,0.65675,1.92924,1.26435
		c0.71959,0.69069,0.9983,1.13824,1.70882,1.34359c0.38676,0.54706-0.32213,0.60509,0.04373,1.0434
		c1.51567,0.43209,1.09373,1.29805,2.62046,1.85233c-0.10602-0.661-0.23964-0.60722,0.94865-0.37888
		c0,0-0.58729-0.29195-1.1746-0.58392c-0.59184-0.28394-1.18368-0.56787-1.18368-0.56787l1.78875,0.32458
		c-0.65078-0.44232-1.55765-0.65264-1.90482-0.98118c0.88565,0.10265,0.75106,0.15974,0.65829-0.38503
		c0.50061,1.19516,2.02259,0.81643,2.77793,1.92994l-0.70653,0.98261c1.24065,1.49193,3.10447,1.33162,4.91483,2.98203
		l-0.51901-0.61896c0.54123-0.20823,1.26663,0.80348,2.02286,1.09415c-0.29265,0.28877,0.02542,0.68986,0.15439,1.08718
		c0.14453-0.27395,1.4298,1.04793,2.07632,0.52436l0.5673,1.06642c1.45353,1.32726,2.49974,0.36471,3.92824,1.61074
		c-0.71642,0.01353-0.20083,0.75574-1.39788,0.25443c0.50111,0.37912,0.90966,0.77627,1.08463,0.55713
		c0.14253,0.4224,1.72292,0.60662,1.95658,1.25996c0.31915,0.01671,0.64355-0.26947,1.1902,0.1804
		c0.01244,0.11145-0.12297,0.15779-0.12297,0.15779c0.12535-0.16148,1.04619,0.45314,0.82588-0.27918
		c0.76777,2.19057,4.36735,3.23103,5.00737,5.15057c1.15386,0.75419,2.54475,1.66647,3.51982,2.44469
		c-0.13814,0.04308-0.13025,0.1537-0.28591-0.02855c1.09033,1.38264,1.55174-0.22619,2.80136,1.34352
		c0.35666,1.1387-1.02917-0.38841-0.70457,0.19847c-0.63783,1.19483,1.94386,1.35717,2.44194,2.81293l-0.29337-0.14605
		c0.47234,0.99615,2.19954,1.19862,3.38655,2.34315c0,0-0.13691,0.03632-0.1385,0.14567
		c1.28875,0.22686,3.04223,1.46373,4.36066,2.36762c-0.71675,0.06393-0.72437-0.26817-0.84913,0.32543
		c0.58062,0.41505,0.41374-0.78068,1.56605,0.05996c0.15284,0.52214,0.74556,1.39313,0.46785,1.90263l-1.01088-0.87215
		c0.01951,1.00182,1.29805,1.13906,1.73544,1.70525l-0.28103,0.17599c1.58786,1.28973,2.15049,0.72038,3.72126,2.26529
		l-0.00209-0.33194c1.42463,0.23866,0.43228,1.01508,1.71588,1.40191l-0.28897,0.83562
		c0.71661,0.39429,2.54451,1.35669,3.68137,2.23389c-0.99921-0.1296-2.41054-1.06183-3.39661-1.51664
		c0.56183,0.5487,1.96373,1.80623,2.53618,1.80344c-0.28262-0.1636-0.70731-0.29739-0.84642-0.60392
		c1.13096,0.21357,2.27784,0.85983,3.38372,1.97511c-1.2995,0.92455,2.63304,3.15385,2.55843,4.82603
		c2.35084,1.57217,3.65507,4.08698,5.94538,6.37941c0.09147-1.67217,0.67709,0.66179,1.44817-0.34433
		c0.57861,0.49287,0.76252,0.71586,0.7505,0.82052l1.0462,2.17567c0.11441,0.64607-0.69839-0.32986-0.85305-0.08528
		c1.08317,1.26701,0.09618,0.87173,0.62766,1.89716c0.16408-0.47371,0.86549-0.02931,1.40672,0.77309l-0.52007-1.36391
		c2.09857,1.20345,0.65706,2.18224,2.79906,3.39017l-0.81108-0.24792c1.01908,0.69337,3.21587,3.16345,4.79818,3.21664
		c0.06133,0.25168,0.04279,0.69827-0.4167,0.40131c2.06412,2.11772,5.61534,3.45842,7.08623,5.28989l-0.36376,0.1144
		c0.50322,0.25476,1.11633,0.09767,1.4976,0.75272c-0.10148,0.08275-0.35661,0.11926-0.15874,0.28429
		c0.08875,0.01137,0.65257,0.21495,1.21741,0.46416c0.56535,0.24992,1.14605,0.55324,1.57314,0.93602l-0.87115-0.15855
		c0.45226,0.34885,0.87769,0.66422,1.31589,0.93739c0.46423,0.26863,0.90714,0.50136,1.32376,0.702
		c0.83911,0.4003,1.54977,0.67722,2.20628,0.87251c0.65361,0.19763,1.21916,0.32486,1.77201,0.4709
		c0.13492,0.0307,0.28425,0.08792,0.40755,0.10223c-0.02559-0.23425-0.05151-0.47137-0.07783-0.7122
		c-0.04739-0.46693-0.08495-0.91779-0.10699-1.35875c0.44115,0.62486,0.74604,0.19232,0.97189-0.73392
		c0.2449-0.87921,0.29586-2.3898,0.36753-3.34998l0.12929,0.12552c0.00356-0.76025-0.00781-1.50267-0.03107-2.21822
		l-0.01964-0.53178l-0.0207-0.29219c-0.01782-0.18333-0.03539-0.36417-0.05276-0.54291
		c-0.08009-0.7146-0.19729-1.39442-0.32892-2.06651c-0.26325-1.34424-0.58423-2.65767-0.78162-4.15726
		c0.95278-1.878,0.32368-6.32211,0.83107-9.32638c-0.15712,0.46036-0.70327-0.06505-0.80103-0.59658
		c0.17345-0.70576-0.65179-1.93556,0.17604-1.8353l-0.01214,0.25094c0.80354-0.54101,0.56843-1.98351,0.57493-3.11233
		l-1.08376-0.17139c1.53231-2.97331-0.6833-7.7264,0.70329-9.35675c-0.28017-0.7084-0.28914-1.59102-0.56882-2.29341l0.58034,0.0302
		c0.12109-1.97581,0.18053-2.9621,0.00883-5.39977l0.4212,0.49181c0.01827-1.37654-1.69518-1.7147-1.7465-2.98355l0.86-0.39373
		c-0.04627-2.40045,0.68035-4.84074-0.13679-7.20219c0.12707,0.03719,0.37842,0.10438,0.41874,0.49264
		c0.0071-1.13042,0.52611-4.37921-0.65598-3.95261c0.77291-0.03864,0.04176-2.47791-0.31682-3.76986l0.57314,0.19402
		c-0.74379-1.08446-0.94368-1.11665-1.1664-2.64198c0.06937-0.36327,0.45243-0.32357,0.31303,0.15944
		c0.28243-1.21082-0.55315-0.93298-0.26927-2.40022l0.37187,0.54023c0.02707-1.24226-0.16711-1.14089-0.60168-1.8187
		c-0.23914-0.77758,0.11221-2.35728,0.62563-2.54765c-0.31674-0.16301-0.74677-0.83727-0.6079-1.57104
		c0.19355-0.10135,0.3182,0.16338,0.37898,0.29658c0.36006-2.08139-0.70547-3.07802-0.16459-4.51344
		c0.18857-0.03226,0.28188-0.12663,0.33717-0.24576c0.009,1.64944-0.0044,2.97815-0.04766,2.85436
		c0.52596-0.00719,0.60012-1.34074,1.341-0.29074c-0.41096-1.06414-1.29766-2.88094-1.06805-4.18294
		c0.05012-0.06367,0.09923-0.12573,0.17966-0.17418l0.0608,0.13359c0.04832-0.30039-0.00426-0.56811-0.09617-0.81965
		c0.08075-0.41559,0.14124-0.67964,0.14338-1.07771c0.43317-0.15959,0.21398-1.53088,0.22642-2.19552
		c-0.57517,0.06282-0.4945-0.8082-0.95817,0.01307c0.0391-0.10606,0.0701,0.12464,0.10007,0.566
		c0.01836,0.09966,0.02857,0.21708,0.06345,0.28242c-0.01492-0.013-0.03268-0.02849-0.05119-0.04464
		c0.01612,0.43599,0.03713,1.00465,0.06102,1.65071c-0.29951-0.52075-0.55289-1.0658-0.24352-1.80471
		c-0.37463-0.33596-0.75993-0.70586-0.94135-0.91486c0.79036-0.92001,1.20029-2.67828,1.6918-2.92894
		c-0.35055-2.02395-0.27812-4.77552-1.37675-6.03611c-0.14689-0.575,0.30092-0.66737,0.46791-0.88512
		c0.11306,0.3315,0.10188,0.72769,0.25973,0.90569c-0.29315-1.1492-0.15451-3.41494-0.91355-3.67985
		c0.32105-1.45812,0.70644,0.80731,0.55573-1.18807l0.23462,0.26645c1.15352-3.94519-2.01516-6.36084-0.52495-10.73755
		c-0.09089,0.30298-0.13284,0.45442-0.25852,0.51793c0.61565-4.97508-0.78088-10.22446,0.23592-15.13923
		c0.19944-1.39586-0.28497-1.54012-0.66347-2.38521l0.6142-0.31012l-0.73314-1.44374
		c-0.55041-2.05372,1.46841-3.58957,0.44514-6.18535l-0.41183,0.34227c0.06623-0.93822-0.28599-2.96495,0.19501-2.81503
		c-0.07726-0.09484-0.437-0.30139-0.22518-0.67063l0.32308-0.03289l-0.58582-2.29438
		c0.20966-1.78764,1.28791,0.26169,1.31544-2.34321c-0.1377-0.96634-0.9794-2.74364-1.19086-2.37721
		c-0.01064,0.39096-0.18784,1.00087-0.51175,1.03457l-0.18056-0.88309c-0.95545-0.14747-1.94093-0.81495-2.57707,1.36731
		l0.60356,1.50649l-0.45565,0.49414l-0.04646-1.27415c-0.42541,0.72886-0.03424,1.18215,0.23708,1.69165
		c-0.24423,0.12492-0.4133,0.33988-0.50072,0.64161l0.93115,1.47433C93.16,6.29805,92.78155,5.45616,92.5892,6.4567
		c0.4323,0.69067,0.82704-0.67938,1.1208,0.46982c-0.42355,0.73043-0.77919,0.52383-0.39783,1.36887
		c-0.24385,0.1229-0.40273-0.05509-0.51521-0.3906c0.30474,0.753,0.15181,2.00138,0.66387,2.38521
		c-0.52448,0.76231,0.17388,2.55361-0.72941,2.49129c0.21924,0.23495,0.72658,1.32344,0.77354,2.01817
		c-1.09753-1.25539-0.02796,2.6033-1.19074,2.28333c0.9841,0.9267,0.47772,3.38967,1.03931,5.0472
		c-0.07825-0.09202-0.23717-0.27283-0.18961-0.42034c-0.06788,0.93826-0.35694,1.21464-0.53217,1.81931
		c0.80381,0.10941,1.00716,1.56639,1.51275,2.34635c-0.75845,1.15913-0.9511-0.6848-1.68999-0.314
		c0.64945-0.06664,0.67604,1.98701,1.21244,1.58886c-0.46688,0.88512-0.22205,0.7602-0.88064,1.22179
		c1.00532,0.14036,0.18068,0.81568,0.80688,1.53582c-0.47709,1.27807-0.93527,0.34017-0.61075,1.73251
		C92.68398,32.30884,92.3116,31.07164,92.3116,31.07164z M94.49939,64.2626c-0.00552,0.00008-0.01146,0.00016-0.01146,0.00016
		c-0.01749-0.28584-0.0324-0.52959-0.04192-0.68516C94.45714,63.72028,94.47254,63.91785,94.49939,64.2626z M94.54649,67.05387
		c0.01788-0.34011,0.016-0.7634,0.006-1.21106c0.19768-0.1006,0.40344,0.00253,0.39684,0.28349
		C94.81478,65.97566,94.70869,66.63515,94.54649,67.05387z M98.45419,61.09536c0.08751,0.44058-0.02348,0.59015-0.14058,0.65234
		c-0.01289-0.20848-0.03567-0.45213-0.07954-0.77173c-0.02167-0.01254-0.0466-0.03869-0.07114-0.05118
		C98.27345,60.96541,98.37708,61.01214,98.45419,61.09536z"/>
	<path class="st0" d="M97.68848,60.31132c-0.01336-0.06361-0.03819-0.09858-0.04444-0.18156
		c-0.04915,0.09095-0.09158,0.17739-0.1258,0.26534c0.06247,0.0527,0.1258,0.10614,0.1825,0.154
		C97.69661,60.46889,97.69234,60.38591,97.68848,60.31132z"/>
	<path class="st0" d="M48.87115,40.03561l-0.0561,0.02216c0.05336-0.00843,0.10316-0.01498,0.14825-0.0015
		C48.91513,40.05529,48.90496,40.04041,48.87115,40.03561z"/>
	<polygon class="st0" points="93.9714,105.61154 94.11629,105.60555 93.98582,105.36337 	"/>
	<path class="st0" d="M62.51781,32.66536c0.05374,0.02221,0.13339,0.03127,0.25084-0.00459
		C62.73888,32.63623,62.63802,32.64793,62.51781,32.66536z"/>
	<path class="st0" d="M67.86693,28.68311l0.86249-0.4311C68.33864,28.41694,68.07615,28.56439,67.86693,28.68311z"/>
	<path class="st0" d="M72.03297,25.67752c-0.01355-0.11895-0.04733-0.18934-0.07833-0.25382l-0.01067,0.00286L72.03297,25.67752z"/>
	<path class="st0" d="M10.26349,66.79285c0.02339,0.01115,0.05216,0.02061,0.08873,0.02537
		C10.61296,66.85129,10.48169,66.8203,10.26349,66.79285z"/>
	<path class="st0" d="M24.29838,57.15322c-0.1742,0.21685-0.34638,0.43044-0.54982,0.61834
		C24.14667,57.59972,24.44527,57.44612,24.29838,57.15322z"/>
	<path class="st0" d="M31.27276,80.53405c0,0-0.00295,0.00394-0.0083,0.00632c0.04672,0.03487,0.0879,0.06561,0.1346,0.10046
		L31.27276,80.53405z"/>
	<path class="st0" d="M22.75272,58.30068c0.43706-0.09971,0.74298-0.29318,0.99585-0.52911
		C23.42248,57.91317,23.02711,58.05817,22.75272,58.30068z"/>
	<path class="st0" d="M88.9046,11.1722l0.19465-0.15428c-0.02912-0.02482-0.03995-0.05734-0.0425-0.08759L88.9046,11.1722z"/>
	<path class="st0" d="M89.05675,10.93033l0.15089-0.24009C89.11678,10.77793,89.04121,10.85711,89.05675,10.93033z"/>
	<path class="st0" d="M89.52352,10.18389l-0.31589,0.50635C89.35258,10.55233,89.54272,10.39385,89.52352,10.18389z"/>
	<path class="st0" d="M83.73849,15.59698l0.08306,0.20757C83.82352,15.74362,83.79857,15.67526,83.73849,15.59698z"/>
	<path class="st0" d="M82.23719,17.01531c0.39901-0.29194,1.22611-0.48528,1.64869-1.04416l-0.06433-0.1666
		C83.79409,16.2572,82.35052,16.442,82.23719,17.01531z"/>
	<path class="st0" d="M74.06476,20.69732l1.41777-0.98222c-0.37365,0.02512-0.8679,0.05203-0.30798-0.49225
		C73.09591,20.11416,75.83789,19.31268,74.06476,20.69732z"/>
	<path class="st0" d="M69.76904,23.84839c0.64986-0.6599-0.2128-0.2431-0.25439-0.37149
		C69.18984,24.00139,69.11192,24.13072,69.76904,23.84839z"/>
	<path class="st0" d="M38.58319,46.23136l-0.19958-0.49214C37.81989,46.1746,38.48559,45.91469,38.58319,46.23136z"/>
	<polygon class="st0" points="33.69849,52.38111 34.46645,52.30752 34.50613,51.72779 	"/>
	<polygon class="st0" points="28.06288,51.36369 28.29193,51.14236 27.36716,51.90218 	"/>
	<path class="st0" d="M34.15665,89.11453l0.23083-0.6408C33.93937,88.26746,33.41504,88.77497,34.15665,89.11453z"/>
	<path class="st0" d="M55.71698,106.69131c0.00244,0.44313,0.43258,1.12762,1.00208,1.22523
		C56.29202,107.45771,56.00672,106.84805,55.71698,106.69131z"/>
	<polygon class="st0" points="99.24485,112.95715 99.46854,113.51664 99.27411,112.4592 	"/>
</g>
</svg>
