<svg xmlns="http://www.w3.org/2000/svg" xmlns:xlink="http://www.w3.org/1999/xlink" version="1.1" id="Layer_1" x="0px" y="0px" viewBox="0 0 360 66" xml:space="preserve" enable-background="new 0 0 360 66">
  <g>
    <g>
      <path d="M18.8 22.2v28.7h-7.9V22.2H0v-7.3h29.7v7.3H18.8z"/>
      <path d="M66.5 50.9V36.4H51.9v14.4H44v-36h7.9v14.2h14.6V14.9h7.9v36H66.5z"/>
      <path d="M91.2 50.9v-36h27.1v7H99v7.3h16.9v7H99v7.6h19.5v7H91.2z"/>
      <path d="M179.1 50.9l-7.7-11.5h-6.2v11.5h-7.9v-36h16.4c8.5 0 13.5 4.5 13.5 11.9v0.1c0 5.8-3.1 9.5-7.7 11.2l8.8 12.9H179.1zM179.3 27.2c0-3.4-2.4-5.1-6.2-5.1h-7.8v10.3h8c3.8 0 6.1-2.1 6.1-5.1V27.2z"/>
      <path d="M203.6 50.9v-36h27.1v7h-19.2v7.3h16.9v7h-16.9v7.6h19.5v7H203.6z"/>
      <path d="M260 51.4c-5.4 0-10.9-1.9-15.2-5.8l4.7-5.6c3.2 2.7 6.6 4.4 10.7 4.4 3.2 0 5.2-1.3 5.2-3.4v-0.1c0-2-1.2-3-7.2-4.6 -7.2-1.9-11.9-3.9-11.9-11v-0.1c0-6.5 5.2-10.8 12.6-10.8 5.2 0 9.7 1.6 13.3 4.6l-4.1 6c-3.2-2.2-6.3-3.5-9.3-3.5 -3 0-4.6 1.4-4.6 3.1v0.1c0 2.4 1.5 3.1 7.7 4.7 7.3 1.9 11.4 4.5 11.4 10.8v0.1C273.1 47.4 267.7 51.4 260 51.4z"/>
      <path d="M289.2 50.9v-36h27.1v7h-19.2v7.3H314v7h-16.9v7.6h19.5v7H289.2z"/>
      <path d="M349.1 22.2v28.7h-7.9V22.2h-10.9v-7.3H360v7.3H349.1z"/>
    </g>
    <rect x="137.5" width="0.8" height="66"/>
  </g>
</svg>
