<?xml version="1.0" encoding="utf-8"?>
<!-- Generator: Adobe Illustrator 19.2.1, SVG Export Plug-In . SVG Version: 6.00 Build 0)  -->
<svg version="1.1" id="Layer_1" xmlns="http://www.w3.org/2000/svg" xmlns:xlink="http://www.w3.org/1999/xlink" x="0px" y="0px"
	 viewBox="0 0 240 270" style="enable-background:new 0 0 240 270;" xml:space="preserve">
<style type="text/css">
	.st0{fill:#FFFFFF;}
</style>
<g>
	<path class="st0" d="M199.53952,230.18637c-0.17416-0.10214-0.35403-0.15419-0.5397-0.15227
		c-0.36559,0.00194-0.80042,0.21106-1.31126,0.62355l-0.68881,0.5609l0.50409,0.62257l1.36513,1.68848l0.59262-0.48091
		c0.48776-0.39513,0.77637-0.8105,0.86104-1.24612c0.08658-0.43655-0.00963-0.82881-0.29054-1.17479
		C199.87334,230.43117,199.70883,230.28468,199.53952,230.18637"/>
	<path class="st0" d="M239.3279,152.33446c-0.24147-0.34502-0.52525-0.64474-0.96013-0.82498
		c-0.01344,0.11661-0.0298,0.2072-0.03461,0.29782c-0.0433,0.76424-0.08467,1.52849-0.12988,2.29274
		c-0.00385,0.05588-0.0385,0.10889-0.05966,0.16287c-0.04424-0.01831-0.09233-0.02988-0.13081-0.05591
		c-0.31746-0.20529-0.6311-0.41731-0.94954-0.61871c-0.17316-0.10892-0.17894-0.12241-0.02116-0.26117
		c0.33575-0.29877,0.54739-0.66595,0.63495-1.11122c0.19048-0.97145-0.41367-1.9371-1.38052-2.1925
		c-1.00052-0.26503-2.05104,0.29105-2.33774,1.24899c-0.13275,0.4395-0.12025,0.88184,0.04137,1.31842
		c0.02118,0.05495-0.01634,0.19179-0.02885,0.19276c-0.20975,0.00479-0.17223,0.16284-0.17894,0.28238
		c-0.1472,2.63293-0.29248,5.26685-0.43774,7.9017c-0.00385,0.08482,0.00385,0.17059,0.00578,0.2612
		c0.05869,0.00771,0.10005,0.01541,0.1424,0.01927c1.47766,0.1272,2.86781-0.13588,4.14058-0.9281
		c0.05099-0.0318,0.12122-0.03564,0.18279-0.05203c0.00963,0.05879,0.02983,0.11853,0.02599,0.17636
		c-0.0327,0.65921-0.0712,1.31841-0.10487,1.97569c-0.00481,0.09058,0.00098,0.18117,0.00288,0.26695
		c0.0327,0.00577,0.04617,0.01059,0.05678,0.00771c0.02405-0.00482,0.0481-0.01253,0.0712-0.02119
		c0.51562-0.2072,0.90334-0.57344,1.18713-1.03604c0.45024-0.73436,0.66765-1.54874,0.71864-2.4055
		c0.06059-0.99939,0.11832-1.99976,0.16547-3.00108c0.02789-0.57729,0.06926-1.15651,0.04137-1.73186
		C239.95515,153.72801,239.77908,152.98401,239.3279,152.33446 M235.72606,153.00424c-0.6311-0.03468-1.0948-0.5657-1.05537-1.20947
		c0.03752-0.62453,0.57144-1.09772,1.19101-1.05437c0.63495,0.04338,1.07938,0.55611,1.04189,1.19603
		C236.8651,152.57346,236.35136,153.03894,235.72606,153.00424"/>
	<path class="st0" d="M229.36613,158.09772c0.58202,0.18602,1.14961,0.42406,1.71819,0.64958
		c0.50699,0.20045,1.02168,0.37007,1.57196,0.2477c0.52142-0.11374,0.75616-0.3595,0.65709-0.94351
		c-0.51854,0.45488-1.11021,0.47029-1.71339,0.32091c-0.51663-0.12915-1.02072-0.30452-1.53059-0.4597
		c-0.40117-0.12238-0.8062-0.20818-1.22372-0.08867c-0.19241,0.05493-0.35112,0.15614-0.44928,0.3672
		c0.09045-0.04915,0.15202-0.11374,0.21648-0.11469C228.86586,158.0688,229.1362,158.02351,229.36613,158.09772"/>
	<path class="st0" d="M231.18428,156.1077c0.30301,0.14265,0.59837,0.29973,0.91104,0.41829
		c0.23282,0.08864,0.48293,0.14745,0.73112,0.18214c0.31461,0.0424,0.74269-0.25346,0.58974-0.7469
		c-0.22417,0.2467-0.50604,0.32285-0.81195,0.27946c-0.21262-0.02985-0.42137-0.0925-0.6282-0.15323
		c-0.3194-0.09541-0.63303-0.2149-0.95531-0.29681c-0.29053-0.07518-0.55028,0.03951-0.64935,0.24576
		C230.64842,155.98434,230.92163,155.98434,231.18428,156.1077"/>
	<path class="st0" d="M198.73332,230.93376c0.91489-1.07938,1.85574-2.13661,2.78699-3.20251
		c0.0616-0.06938,0.12315-0.13878,0.22128-0.2525c0.09717,0.64282,0.19145,1.20952,0.26263,1.78004
		c0.01442,0.11565-0.02695,0.27274-0.10101,0.35948c-0.69458,0.81244-1.40553,1.61041-2.10107,2.41995
		c-0.11739,0.13686-0.21359,0.14841-0.37137,0.08289c-0.52141-0.21394-1.04861-0.41537-1.57484-0.61873
		c-0.78021-0.29875-1.56233-0.59464-2.34352-0.89243c-0.48102,0.55029-0.96204,1.1006-1.44305,1.65089
		c0.1097,0.09637,0.21935,0.19179,0.32903,0.28912c0.35114-0.3961,0.71094-0.78448,1.04861-1.19215
		c0.15199-0.18312,0.28958-0.22456,0.51469-0.13203c1.03514,0.42116,2.07703,0.82785,3.11699,1.24034
		c0.07791,0.0318,0.15393,0.06938,0.23282,0.10602c-0.22128,0.28816-0.22128,0.28911-0.52721,0.28622
		c-0.49158-0.00577-0.98415-0.01157-1.47575-0.02119c-0.06541,0-0.12988-0.01736-0.24339-0.03278
		c0.18086-0.20624,0.32613-0.37393,0.52623-0.60138c-0.20973-0.02892-0.42232-0.11757-0.48871-0.05397
		c-0.31169,0.29973-0.58301,0.64186-0.91296,1.01869c0.16064,0.03084,0.25974,0.06264,0.36076,0.06842
		c0.81482,0.04337,1.63065,0.07805,2.44548,0.12239c1.07747,0.05687,2.15591,0.12047,3.23436,0.15903
		c0.56569,0.02119,1.01878,0.15901,1.42766,0.57439c0.48199,0.4915,1.02939,0.9194,1.571,1.39455
		c-0.2482,0.2843-0.48004,0.54739-0.72249,0.82593c0.12315,0.10889,0.22513,0.19756,0.32709,0.2872
		c0.60127-0.68813,1.20255-1.37527,1.80382-2.06339c-0.10582-0.09349-0.21259-0.18697-0.33382-0.29298
		c-0.27705,0.31706-0.52719,0.60332-0.79463,0.90881c-0.07504-0.06554-0.13567-0.11853-0.1953-0.17155
		c-0.60321-0.52908-1.21217-1.05432-1.80672-1.59402c-0.10294-0.09348-0.18469-0.24768-0.21068-0.38646
		c-0.24435-1.28371-0.48293-2.56839-0.72153-3.85402c-0.14333-0.771-0.28766-1.54198-0.43289-2.31299
		c-0.0183-0.0983-0.06351-0.19179-0.10872-0.32188c-1.34109,1.53427-2.64656,3.02615-3.95302,4.52092
		C198.34367,231.21036,198.52167,231.18338,198.73332,230.93376"/>
	<path class="st0" d="M63.74431,256.10223c-0.3223-1.80605-0.64938-3.61115-0.97166-5.41817
		c-0.06349-0.35658,0.05772-0.65341,0.32517-0.89627c0.10295-0.09155,0.20011-0.18987,0.29727-0.2872
		c0.04521-0.04434,0.09043-0.08673,0.13564-0.13107c-0.00385-0.0029-0.00769-0.00771-0.01154-0.0106
		c0.01635-0.02119,0.03461-0.04337,0.05003-0.06552c0.02983-0.04048,0.05869-0.08192,0.08561-0.12433
		c0.20202-0.31708,0.31267-0.65633,0.25205-1.03989c-0.10869-0.68523-0.29438-1.34828-0.58201-1.97952
		c-0.17318-0.37779-0.3829-0.73051-0.68785-1.02158c-0.52912-0.50693-1.24199-0.45296-1.68356,0.13107
		c-0.18279,0.2419-0.29632,0.51849-0.37519,0.80858c-0.10872,0.39224-0.16548,0.78835-0.19434,1.18541
		c-0.03367,0.44331-0.02886,0.88954,0.01155,1.3367c0.02309,0.2554,0.12121,0.48093,0.2761,0.6833
		c0.24051,0.31323,0.55605,0.5291,0.90527,0.70354c0.32613,0.16383,0.51085,0.42982,0.53682,0.79411
		c0.1039,1.48804,0.20107,2.97798,0.304,4.466c0.07601,1.07359,0.15393,2.1472,0.23474,3.21986
		c0.01925,0.26599,0.11064,0.5079,0.28477,0.7132c0.33959,0.39703,0.84561,0.33441,1.0794-0.13205
		c0.12122-0.24094,0.15009-0.49826,0.10487-0.76041C63.99923,257.55173,63.8732,256.827,63.74431,256.10223"/>
	<path class="st0" d="M61.63755,252.75766c-1.01014,0.07036-2.02028,0.13879-3.03042,0.21107
		c-0.46851,0.03372-0.93797,0.06744-1.40553,0.10889c-0.31266,0.02699-0.58876,0.14168-0.80042,0.38358
		c-0.20299,0.23322-0.22416,0.53584-0.04234,0.75943c0.06927,0.08481,0.16067,0.15805,0.25591,0.21202
		c0.23762,0.13397,0.49834,0.16383,0.76386,0.11757c1.45363-0.25441,2.9063-0.5127,4.35897-0.77002
		c0.01251-0.00192,0.02598-0.00674,0.04426-0.01157c-0.02309-0.33923-0.04713-0.67461-0.07022-1.01385
		C61.6818,252.75574,61.65968,252.75574,61.63755,252.75766"/>
	<path class="st0" d="M70.72646,253.12447c-0.58398,0.05685-1.16695,0.11276-1.75188,0.16769
		c-0.2078,0.01927-0.41657,0.0424-0.62531,0.06071c-0.28766,0.02409-0.5782,0.02409-0.8668,0.0347
		c-0.04137,0-0.08176-0.00964-0.12313-0.01445c0.00769-0.02313,0.01636-0.03278,0.02499-0.03568
		c0.41851-0.11276,0.84372-0.18311,1.26892-0.25635c0.69845-0.11951,1.40075-0.21974,2.10398-0.32863
		c-0.00672-0.04916-0.01441-0.10023-0.02213-0.15518c-0.02405,0.00194-0.04616,0.00386-0.06829,0.00482
		c-0.75905,0.07518-1.51521,0.15324-2.27426,0.2207c-0.04137,0.00288-0.08367,0.00288-0.1241,0.00481
		c-0.27512,0.01929-0.55028,0.02795-0.82543,0.0376c-0.04906,0.00192-0.09811-0.00868-0.14717-0.01253
		c0-0.00867,0-0.01639-0.00194-0.02507c0.02598-0.01155,0.05196-0.026,0.07889-0.03276
		c0.09236-0.02602,0.18472-0.05205,0.27802-0.07228c0.12122-0.02505,0.24435-0.03661,0.36558-0.05974
		c0.75905-0.14746,1.52194-0.27083,2.28771-0.37587c0.12794-0.01735,0.25686-0.02795,0.40504-0.0424
		c-0.0106-0.04047-0.02214-0.06458-0.02311-0.08963c-0.00191-0.02699,0.00579-0.05493,0.00867-0.08289
		c-0.0481,0.00386-0.06829,0.00578-0.08946,0.00771c-0.78887,0.0771-1.57872,0.1571-2.3695,0.22649
		c-0.23763,0.02217-0.47717,0.02409-0.71574,0.03085c-0.04812,0.00095-0.09621,0.00385-0.14526,0.00578
		c-0.04716,0.00192-0.09621-0.00868-0.1443-0.0135c0-0.00674-0.00097-0.01349-0.00194-0.02119
		c0.02599-0.01157,0.04906-0.02795,0.07601-0.03566c0.02789-0.00772,0.05675-0.0135,0.08561-0.02121
		c0.08083-0.02216,0.16259-0.04529,0.24629-0.06264c0.95241-0.19565,1.91347-0.33443,2.87647-0.45972
		c0.03849-0.00481,0.07695,0.00098,0.11544,0.00098c-0.00769-0.07518-0.01347-0.12433-0.02211-0.20143
		c-0.03176,0.01157-0.05965,0.02794-0.08852,0.02988c-0.86776,0.08289-1.73456,0.16577-2.60135,0.24287
		c-0.21355,0.01831-0.42905,0.01445-0.64361,0.01831c-0.03558,0.00095-0.07117-0.00964-0.10678-0.01447v-0.02119
		c0.02789-0.01253,0.05485-0.02892,0.08467-0.03566c0.10484-0.02989,0.21069-0.05879,0.31746-0.08096
		c0.96685-0.19757,1.94139-0.33827,2.91882-0.46741c0.02404-0.00194,0.04715-0.00771,0.07119-0.0106
		c0-0.07999,0.00097-0.08289-0.06926-0.09251c-0.1241-0.01447-0.24917-0.03276-0.37424-0.03952
		c-1.00628-0.05397-2.00967,0.01349-3.01214,0.11082c-0.31843,0.03181-0.59837,0.1571-0.85907,0.33057
		c-0.0491,0.03181-0.1039,0.05205-0.15009,0.08963c-0.16453,0.12721-0.32227,0.26505-0.43002,0.44525
		c-0.18185,0.30453-0.43965,0.48187-0.79562,0.50693c-0.37328,0.02507-0.74557,0.05013-1.11884,0.07516
		c-0.02692,0.00194-0.05291,0.00482-0.08464,0.00772c0.04712,0.26503,0.09427,0.52234,0.14142,0.78352
		c0.03077-0.00482,0.05578-0.00867,0.07983-0.01349c0.35979-0.06554,0.71865-0.13107,1.07653-0.19661
		c0.32034-0.05685,0.59358,0.03952,0.83408,0.24962c0.09618,0.08383,0.19336,0.16769,0.30014,0.23322
		c0.42042,0.25539,0.87449,0.38358,1.36704,0.30069c0.62053-0.106,1.24006-0.21974,1.85769-0.34213
		c0.04427-0.00867,0.08755-0.02698,0.13182-0.03662c0.39538-0.08287,0.78596-0.18118,1.16502-0.32188
		c0.06541-0.02505,0.12985-0.05301,0.19529-0.08095c-0.00481-0.03084-0.00866-0.05495-0.01444-0.09253
		C70.7707,253.11388,70.74857,253.12253,70.72646,253.12447"/>
	<path class="st0" d="M3.07948,165.80991l-2.88418,0.43079L0,164.93387l7.45769-1.11601l0.31458,2.11832
		c0.07216,0.47223,0.07793,0.88954,0.01732,1.25188c-0.05772,0.36526-0.16931,0.67561-0.32998,0.93196
		c-0.16162,0.25926-0.36942,0.4626-0.61955,0.61389c-0.25398,0.1523-0.53971,0.25156-0.85718,0.29877
		c-0.1241,0.01831-0.27032,0.02505-0.43965,0.01637c-0.17027-0.00479-0.34826-0.03564-0.53585-0.08864
		c-0.18856-0.05301-0.37808-0.13591-0.56952-0.25156c-0.18953-0.11371-0.36942-0.26791-0.53489-0.46741
		c-0.16836-0.19563-0.31652-0.43945-0.44447-0.73148c-0.12892-0.28911-0.22031-0.63896-0.28284-1.04663L3.07948,165.80991z
		 M4.03574,165.66727l0.10389,0.66113c0.0356,0.24094,0.09813,0.45778,0.18856,0.64668
		c0.09044,0.19083,0.20493,0.34792,0.34249,0.47417c0.14142,0.12239,0.30112,0.21297,0.48486,0.26598
		c0.18183,0.05011,0.3829,0.06073,0.60224,0.02893c0.17413-0.02602,0.33383-0.07903,0.47909-0.15517
		c0.14719-0.07712,0.2684-0.186,0.36653-0.32767c0.09716-0.14168,0.16547-0.31612,0.20299-0.52814
		c0.03752-0.21011,0.03367-0.4655-0.00866-0.76425l-0.10486-0.69872L4.03574,165.66727z"/>
	<path class="st0" d="M9.06025,173.04243l0.25109,1.15167l-6.80062,4.22697l-0.33095-1.51884l2.13476-1.27022l-0.47525-2.18192
		l-2.4657-0.22745l-0.26552-1.22011L9.06025,173.04243z M4.84173,173.50983l0.36941,1.67885l2.47917-1.4032L4.84173,173.50983z"/>
	<path class="st0" d="M3.53529,182.13815l-0.36942-1.26538l7.23835-2.11832l0.59935,2.0489
		c0.13468,0.46069,0.20394,0.87413,0.21068,1.2365c0.00481,0.36238-0.04714,0.6804-0.15488,0.95024
		c-0.10679,0.26985-0.27034,0.49538-0.48486,0.6727c-0.2155,0.18024-0.47814,0.31323-0.7908,0.40479
		c-0.20299,0.0607-0.41848,0.09541-0.64648,0.10794c-0.22897,0.01155-0.45985-0.01735-0.69171-0.08868
		c-0.23088-0.07228-0.45888-0.19467-0.68304-0.36525c-0.22416-0.16962-0.43291-0.41055-0.63013-0.71701l-2.43684,3.1042
		l-0.41656-1.42538l2.39547-2.80257c-0.02117-0.07805-0.04523-0.16673-0.0712-0.26405
		c-0.02597-0.1012-0.04618-0.21782-0.06253-0.3537L3.53529,182.13815z M7.45847,180.99417
		c0.01443,0.09929,0.03655,0.19856,0.06157,0.29684c0.02597,0.10023,0.05387,0.20145,0.08273,0.30359
		c0.07407,0.25058,0.16931,0.46935,0.28669,0.65149c0.11736,0.18311,0.25109,0.32863,0.40308,0.43463
		c0.15008,0.10506,0.31458,0.17155,0.49545,0.19856c0.1799,0.02312,0.36942,0.00771,0.56953-0.05013
		c0.19914-0.05879,0.36269-0.133,0.49063-0.22552c0.12892-0.09058,0.21934-0.21008,0.27418-0.35947
		c0.0558-0.15034,0.07407-0.3354,0.05772-0.55513c-0.01925-0.2207-0.07312-0.48958-0.16547-0.80569l-0.1722-0.58786
		L7.45847,180.99417z"/>
	<path class="st0" d="M13.32437,187.92679l0.40501,1.1064l-6.15606,5.1223l-0.53681-1.45815l1.94042-1.55356l-0.76962-2.09422
		l-2.47051,0.11371l-0.43388-1.17577L13.32437,187.92679z M9.20879,188.97148l0.59356,1.61235l2.26656-1.7299L9.20879,188.97148z"/>
	<path class="st0" d="M11.91288,201.29507c-0.32806-0.09154-0.60416-0.19273-0.82832-0.30647
		c-0.22511-0.11179-0.42137-0.24382-0.58684-0.39223c-0.16547-0.14844-0.30689-0.31902-0.42907-0.51175
		c-0.12025-0.1937-0.23859-0.4202-0.35595-0.67654c-0.21936-0.48767-0.3146-0.95604-0.29054-1.40804
		c0.02694-0.4549,0.14815-0.87988,0.36364-1.27408c0.21646-0.39418,0.51374-0.75267,0.89373-1.07457
		c0.38098-0.32094,0.81292-0.5927,1.30164-0.81534c0.30784-0.13779,0.62147-0.24864,0.94374-0.33344
		c0.32036-0.08482,0.63495-0.13205,0.94857-0.14844c0.3117-0.01253,0.6157,0.00774,0.91298,0.07036
		c0.29726,0.06073,0.57721,0.16672,0.84273,0.3161c0.26455,0.14844,0.50603,0.34409,0.72537,0.58981
		c0.21934,0.24385,0.4079,0.54066,0.56664,0.89339c0.09524,0.20818,0.17124,0.41537,0.23089,0.61391
		c0.05867,0.19949,0.09716,0.39708,0.11447,0.59273c0.01635,0.19272,0.01058,0.39223-0.01923,0.59172
		c-0.02983,0.19949-0.08178,0.40575-0.1597,0.61487l-1.11789-0.28815c0.06541-0.16191,0.11448-0.31226,0.14815-0.45682
		c0.03367-0.14458,0.051-0.28432,0.05195-0.42213c0.00097-0.13782-0.01443-0.27467-0.04714-0.41055
		c-0.03367-0.13684-0.08466-0.27754-0.15296-0.42693c-0.13468-0.29779-0.31844-0.52525-0.55124-0.67946
		c-0.23474-0.15417-0.49449-0.25153-0.78311-0.29102c-0.2886-0.03665-0.59261-0.02507-0.91201,0.03949
		c-0.31843,0.06361-0.63301,0.16771-0.94376,0.30743c-0.40598,0.18214-0.76674,0.39417-1.0794,0.63414
		c-0.31266,0.23805-0.56664,0.48669-0.75905,0.7498c-0.19337,0.26503-0.3165,0.532-0.3723,0.80281
		c-0.05484,0.27274-0.02598,0.53391,0.08658,0.78448c0.10198,0.22163,0.20683,0.40381,0.31843,0.54739
		c0.11064,0.13974,0.23089,0.25346,0.35884,0.34406c0.12699,0.08673,0.26552,0.15518,0.41656,0.20335
		c0.15008,0.04723,0.31652,0.08867,0.49642,0.12431L11.91288,201.29507z"/>
	<polygon class="st0" points="18.82298,200.69417 19.45312,201.85741 16.56315,203.42831 18.05143,206.17308 20.93946,204.60121 
		21.56959,205.76541 14.94117,209.36884 14.31104,208.2056 17.19617,206.63663 15.70887,203.89189 12.8247,205.46184 
		12.19455,204.29956 	"/>
	<path class="st0" d="M23.58188,209.07893l-4.22238,2.72548c-0.19337,0.12431-0.35499,0.26599-0.48486,0.42116
		c-0.13084,0.15709-0.21934,0.32767-0.26552,0.51561c-0.04714,0.18503-0.04714,0.38452-0.00097,0.60136
		c0.04715,0.21396,0.14624,0.44139,0.30112,0.68138c0.16931,0.26599,0.34922,0.46933,0.53394,0.61003
		c0.18471,0.13783,0.37519,0.22551,0.56567,0.25636c0.1924,0.0318,0.38673,0.01831,0.583-0.03951
		c0.19817-0.05785,0.39635-0.15034,0.59549-0.27757l4.18775-2.70039l0.71382,1.11215l-4.12617,2.65993
		c-0.38096,0.24576-0.74268,0.41345-1.08806,0.50598c-0.34536,0.08963-0.68111,0.09444-1.00532,0.01059
		c-0.32227-0.08192-0.63879-0.25346-0.94471-0.51945c-0.30689-0.26407-0.60898-0.62932-0.91008-1.09288
		c-0.27418-0.43176-0.46466-0.82883-0.56953-1.19698c-0.1039-0.36719-0.12602-0.70836-0.06638-1.02927
		c0.05774-0.31708,0.19722-0.61392,0.42042-0.88954c0.22029-0.2737,0.52046-0.53198,0.8995-0.77583l4.16849-2.68883
		L23.58188,209.07893z"/>
	<polygon class="st0" points="30.04126,220.02089 28.65401,218.16473 23.39456,222.10741 22.6028,221.04825 27.86321,217.10654 
		26.47788,215.25229 27.25712,214.66827 30.81954,219.4388 	"/>
	<polygon class="st0" points="34.14896,224.92992 32.24317,222.68152 30.67024,224.02209 32.18833,225.80983 31.44853,226.44011 
		29.93043,224.65334 27.9852,226.31099 29.97372,228.65094 29.23008,229.28317 26.38534,225.93608 32.13061,221.04025 
		34.89454,224.29387 	"/>
	<path class="st0" d="M42.7555,232.32436c0.2761,0.25732,0.49834,0.52138,0.66573,0.79221
		c0.16644,0.26985,0.27226,0.53679,0.31939,0.80183c0.04811,0.26215,0.03463,0.51849-0.04041,0.77002
		c-0.07407,0.24864-0.2155,0.48573-0.41848,0.7074c-0.12987,0.13974-0.28188,0.24864-0.45985,0.33055
		c-0.17702,0.07904-0.36366,0.13205-0.55991,0.15326c-0.19529,0.02408-0.39347,0.01733-0.5955-0.02025
		c-0.20202-0.03662-0.39251-0.10216-0.57049-0.19661c0.1193,0.15901,0.2232,0.34117,0.3117,0.55031
		c0.08755,0.21104,0.14045,0.43175,0.15681,0.66594c0.01635,0.23515-0.01251,0.47513-0.08658,0.71895
		c-0.07504,0.24286-0.2155,0.47609-0.42425,0.69873c-0.1751,0.18983-0.38385,0.33441-0.6311,0.43657
		c-0.24725,0.1012-0.51564,0.14746-0.80521,0.13493c-0.29054-0.0135-0.59358-0.08963-0.90816-0.22841
		c-0.31652-0.14072-0.62821-0.35468-0.94088-0.64378l-1.9029-1.76656l5.12765-5.5396L42.7555,232.32436z M39.11709,234.65952
		l-1.62295,1.75497l0.74364,0.68907c0.19241,0.17926,0.38288,0.31033,0.57145,0.39224
		c0.18568,0.08192,0.36461,0.12627,0.53297,0.13107c0.16644,0.0058,0.32037-0.02119,0.45793-0.08191
		c0.13758-0.05879,0.25494-0.13878,0.35018-0.24384c0.11353-0.12143,0.19819-0.25925,0.25688-0.41345
		c0.05772-0.15033,0.07695-0.31224,0.05867-0.47897c-0.01923-0.16866-0.08081-0.34599-0.18279-0.53006
		c-0.10197-0.18407-0.25589-0.37393-0.46273-0.56476L39.11709,234.65952z M41.30091,232.30315l-1.52291,1.64223l0.51372,0.47899
		c0.17413,0.15805,0.34538,0.28912,0.52046,0.38838c0.1722,0.09831,0.33864,0.15999,0.50411,0.18312
		c0.16451,0.02312,0.32132,0.00674,0.47235-0.0482c0.15201-0.05492,0.29438-0.15323,0.42811-0.29779
		c0.1241-0.13588,0.2155-0.27371,0.26937-0.41151c0.05387-0.13974,0.06446-0.28622,0.02886-0.44043
		c-0.03368-0.15421-0.11352-0.31902-0.23762-0.49632c-0.12411-0.17734-0.30112-0.37393-0.53104-0.58789L41.30091,232.30315z"/>
	<path class="st0" d="M48.26632,237.12379l0.91682,0.73824l-2.66292,7.56058l-1.20639-0.97531l0.86969-2.33034l-1.73455-1.40128
		l-2.06163,1.36852l-0.97359-0.78546L48.26632,237.12379z M45.2696,240.1326l1.33434,1.07843l1.06017-2.65028L45.2696,240.1326z"/>
	<path class="st0" d="M49.67878,247.70735l-1.07844-0.75459l4.32051-6.19496l1.74705,1.22588
		c0.39539,0.27563,0.70805,0.55321,0.93991,0.83461c0.22895,0.27756,0.3877,0.558,0.47235,0.83557
		c0.08369,0.27852,0.09909,0.55511,0.04137,0.82881c-0.05677,0.27371-0.17702,0.54355-0.36269,0.81052
		c-0.12218,0.17444-0.26842,0.33827-0.4387,0.48958c-0.17221,0.15323-0.36941,0.2737-0.59453,0.36526
		c-0.22319,0.08865-0.47813,0.13782-0.76,0.14262c-0.28284,0.00868-0.5955-0.04723-0.94088-0.16383l0.03849,3.94943
		l-1.21602-0.85004l0.11833-3.68729c-0.06446-0.04721-0.14045-0.10023-0.22222-0.16286
		c-0.08178-0.06073-0.17221-0.13879-0.26938-0.23515L49.67878,247.70735z M52.02327,244.35448
		c0.07407,0.06747,0.15199,0.13107,0.23377,0.19469c0.08177,0.05975,0.16642,0.12241,0.25397,0.18214
		c0.2155,0.15036,0.42522,0.25925,0.63205,0.32864c0.20493,0.07036,0.39828,0.09926,0.58397,0.08771
		c0.18471-0.0135,0.35403-0.06361,0.51083-0.1571c0.15585-0.09251,0.29343-0.22455,0.41464-0.39609
		c0.1193-0.16962,0.20011-0.3325,0.24243-0.48187c0.0433-0.15131,0.03849-0.30167-0.01251-0.45296
		c-0.04906-0.15036-0.15104-0.30745-0.304-0.46742c-0.15007-0.15999-0.36172-0.33731-0.63108-0.52524l-0.50123-0.35178
		L52.02327,244.35448z"/>
	<path class="st0" d="M78.97853,261.92133c-0.29729,0.16287-0.56569,0.28238-0.80332,0.35947
		c-0.23954,0.07806-0.47042,0.12048-0.69363,0.13107c-0.22125,0.01059-0.44156-0.01157-0.66284-0.0665
		c-0.22221-0.05301-0.46175-0.13107-0.7244-0.23322c-0.49449-0.19373-0.89181-0.46164-1.1881-0.80377
		c-0.29729-0.34021-0.50603-0.72955-0.62822-1.16034c-0.12122-0.43561-0.15778-0.89917-0.11063-1.39359
		c0.04618-0.49728,0.16644-0.99457,0.36173-1.49475c0.12025-0.31226,0.26743-0.612,0.43771-0.89822
		c0.17125-0.2843,0.36267-0.54163,0.57529-0.77098c0.21262-0.22649,0.4464-0.4231,0.69942-0.58693
		c0.25686-0.16577,0.52911-0.2872,0.82252-0.36526c0.29151-0.07903,0.60224-0.10794,0.92933-0.08673
		c0.32613,0.02023,0.66766,0.10022,1.02554,0.23996c0.21452,0.08481,0.41173,0.17734,0.59261,0.28143
		c0.18182,0.10118,0.34632,0.2149,0.49641,0.34019c0.1472,0.12721,0.279,0.27274,0.39732,0.43465
		c0.11834,0.16479,0.22318,0.34888,0.31554,0.55319l-0.99955,0.57535c-0.06541-0.15997-0.13661-0.30261-0.21259-0.42792
		c-0.07504-0.1272-0.16068-0.24094-0.25689-0.33826c-0.09524-0.1012-0.20202-0.186-0.32034-0.26117
		c-0.11929-0.0742-0.25301-0.13976-0.40598-0.19949c-0.30402-0.11855-0.59455-0.15228-0.86776-0.09831
		c-0.27322,0.05301-0.52817,0.16673-0.76002,0.34117c-0.23282,0.17542-0.44156,0.39609-0.62338,0.66595
		c-0.18472,0.26984-0.33962,0.56186-0.46178,0.87894c-0.16259,0.41632-0.27131,0.82013-0.32903,1.20853
		c-0.05676,0.39032-0.06348,0.74594-0.01733,1.06879c0.04716,0.32382,0.14433,0.6033,0.29536,0.83655
		c0.14911,0.23129,0.35116,0.39706,0.60802,0.49728c0.22606,0.08768,0.42808,0.14456,0.60606,0.16672
		c0.17797,0.02313,0.3425,0.02026,0.49737-0.00482c0.15105-0.026,0.29919-0.07516,0.43871-0.14551
		c0.14142-0.07132,0.28763-0.15805,0.44156-0.26022L78.97853,261.92133z"/>
	<path class="st0" d="M88.85553,262.07861c-0.11066,0.36331-0.25301,0.70065-0.42524,1.01385
		c-0.17316,0.31418-0.37327,0.59558-0.59742,0.84424c-0.2251,0.24866-0.47042,0.46356-0.73788,0.6409
		c-0.26552,0.17734-0.54546,0.31226-0.83984,0.40765c-0.29536,0.09543-0.60127,0.14456-0.91682,0.14938
		c-0.31652,0.00577-0.63689-0.04242-0.96107-0.14166c-0.52048-0.15903-0.95628-0.39127-1.30644-0.6987
		c-0.3502-0.30939-0.61475-0.67465-0.79176-1.09387c-0.17894-0.42114-0.27227-0.8876-0.27612-1.40128
		c-0.00482-0.51465,0.07792-1.0553,0.25204-1.6239c0.16547-0.54837,0.39444-1.02737,0.68785-1.43887
		c0.29247-0.41153,0.63016-0.74017,1.01688-0.98593c0.38674-0.24478,0.81004-0.39706,1.27662-0.45776
		c0.46466-0.05878,0.95243-0.01349,1.46231,0.14264c0.47811,0.14648,0.89181,0.36523,1.241,0.65439
		c0.34923,0.28815,0.61957,0.63412,0.81389,1.03506c0.19145,0.40186,0.30114,0.85385,0.32518,1.35501
		C89.10276,260.97995,89.02675,261.51193,88.85553,262.07861 M87.48752,261.78757c0.12601-0.41635,0.19527-0.80472,0.20777-1.17191
		c0.01348-0.36914-0.02789-0.69873-0.12313-0.99362c-0.0933-0.29395-0.24051-0.54355-0.44062-0.74982
		c-0.1972-0.20624-0.44444-0.35657-0.73978-0.44717c-0.2915-0.08673-0.57722-0.10504-0.85526-0.05203
		c-0.279,0.05203-0.54162,0.17059-0.78694,0.35272c-0.24341,0.18216-0.46275,0.42502-0.6619,0.72763
		c-0.1972,0.30167-0.35786,0.65823-0.48196,1.06879c-0.12507,0.41443-0.20205,0.80957-0.22706,1.18542
		c-0.02596,0.37875,0.00291,0.71893,0.08467,1.02734c0.08176,0.30743,0.22128,0.56958,0.41657,0.78641
		c0.19624,0.21686,0.44925,0.37299,0.76192,0.46838c0.3117,0.0954,0.61568,0.1041,0.90913,0.02219
		c0.29341-0.08002,0.56469-0.2236,0.81676-0.43179c0.25011-0.20718,0.47139-0.46643,0.66378-0.77771
		C87.22488,262.49301,87.37686,262.1557,87.48752,261.78757"/>
	<polygon class="st0" points="93.02103,261.57272 91.85889,266.85693 90.5688,266.57169 92.19367,259.19327 93.41257,259.4631 
		95.36743,265.46146 96.5363,260.15509 97.82639,260.43939 96.21979,267.81973 94.99992,267.55084 	"/>
	<polygon class="st0" points="104.45473,262.49399 101.54456,262.05258 101.23479,264.09766 103.55136,264.44943 
		103.40707,265.41125 101.08855,265.06046 100.70663,267.58737 103.74184,268.04611 103.59563,269.01373 99.25491,268.35742 
		100.38435,260.88644 104.59904,261.52542 	"/>
	<polygon class="st0" points="108.14768,269.50629 108.43916,266.14474 106.48526,261.77802 107.93988,261.90524 
		109.27612,265.17618 111.04051,262.17508 112.48838,262.30035 109.76196,266.18234 109.4647,269.62 	"/>
	
		<rect x="121.15427" y="262.44229" transform="matrix(0.99999 -0.00471 0.00471 0.99999 -1.25372 0.57724)" class="st0" width="1.32041" height="7.5544"/>
	<path class="st0" d="M125.99776,267.9769c0.18085,0.16385,0.34151,0.30359,0.48293,0.41443
		c0.14143,0.11179,0.27997,0.20239,0.41848,0.26694c0.13758,0.0665,0.28381,0.11084,0.43678,0.13495
		c0.15393,0.02408,0.33672,0.02698,0.54837,0.01251c0.16162-0.01251,0.3194-0.03952,0.47235-0.08383
		c0.15103-0.04434,0.28572-0.11276,0.40117-0.20142c0.11543-0.08868,0.20395-0.20334,0.26839-0.34119
		c0.06448-0.14069,0.08853-0.31226,0.07504-0.5127c-0.00963-0.13782-0.04521-0.25925-0.10774-0.36142
		c-0.06059-0.10117-0.15009-0.1937-0.26358-0.2756c-0.1145-0.08194-0.25592-0.15903-0.42523-0.23227
		c-0.16739-0.07132-0.36077-0.14456-0.58395-0.2236c-0.07407-0.02698-0.1443-0.05106-0.20683-0.07227
		c-0.06157-0.02121-0.12122-0.04337-0.17701-0.06555c-0.05484-0.02023-0.11163-0.04239-0.16644-0.06168
		c-0.05581-0.02121-0.11738-0.04239-0.17894-0.06937c-0.12892-0.04724-0.2684-0.10025-0.41561-0.15421
		c-0.14814-0.05399-0.29535-0.12338-0.4435-0.20145c-0.14814-0.07709-0.29244-0.17056-0.43386-0.27466
		c-0.14046-0.10794-0.26553-0.23322-0.37809-0.38068c-0.11062-0.14456-0.20493-0.31708-0.27803-0.51175
		c-0.07407-0.19467-0.12219-0.41925-0.13948-0.6727c-0.02311-0.32861,0.02789-0.62064,0.15487-0.87604
		c0.12701-0.2525,0.30401-0.46838,0.52914-0.6438c0.22894-0.17444,0.49062-0.31223,0.79175-0.4115
		c0.30208-0.10022,0.61378-0.16287,0.93509-0.186c0.24245-0.01639,0.47235-0.01639,0.68882,0.0029
		c0.21646,0.01733,0.42329,0.05685,0.6205,0.11758c0.19724,0.0607,0.39059,0.14261,0.5782,0.24478
		c0.18565,0.10406,0.37424,0.22839,0.56471,0.37683l-0.66478,1.02734c-0.1366-0.12241-0.26743-0.23325-0.38864-0.33057
		c-0.12317-0.0983-0.24533-0.17828-0.37328-0.24384c-0.12892-0.0665-0.26649-0.11179-0.41463-0.13974
		c-0.14721-0.02795-0.31458-0.0376-0.49931-0.02411c-0.14142,0.01062-0.28378,0.03568-0.42617,0.07422
		c-0.14333,0.03952-0.27131,0.09543-0.38481,0.16962c-0.11256,0.07422-0.20396,0.16577-0.2713,0.27469
		c-0.06829,0.11081-0.09715,0.24094-0.08562,0.39224c0.01251,0.17828,0.0731,0.33539,0.18085,0.47031
		c0.1116,0.13684,0.23954,0.25443,0.38675,0.35272c0.14814,0.09927,0.30304,0.18216,0.46272,0.24866
		c0.15971,0.0665,0.29729,0.11948,0.41273,0.159c0.10197,0.03857,0.18855,0.07037,0.25974,0.09543
		c0.07023,0.026,0.13854,0.05011,0.20876,0.07324c0.0683,0.02698,0.14334,0.05109,0.22513,0.07709
		c0.07983,0.02698,0.17989,0.06265,0.3011,0.10507c0.09525,0.03275,0.20203,0.07227,0.32037,0.11948
		c0.11928,0.04819,0.24144,0.10794,0.36748,0.17831c0.1241,0.07034,0.2482,0.15323,0.37039,0.25443
		c0.1241,0.09732,0.23282,0.21683,0.33289,0.35464c0.09908,0.13684,0.18181,0.29877,0.25011,0.47897
		c0.06638,0.18216,0.10872,0.3913,0.12506,0.62933c0.01732,0.24191-0.00287,0.46356-0.06059,0.66788
		c-0.05772,0.20334-0.14433,0.38647-0.2588,0.55417c-0.11641,0.16479-0.25491,0.3132-0.41847,0.44333
		c-0.16547,0.12912-0.34248,0.23804-0.53587,0.32861c-0.19238,0.08673-0.39633,0.15997-0.60512,0.21298
		c-0.21262,0.05399-0.43001,0.08868-0.64551,0.1041c-0.29632,0.02118-0.57338,0.01541-0.82831-0.01541
		c-0.25592-0.02893-0.49931-0.08578-0.72827-0.16193c-0.22991-0.08096-0.45023-0.18311-0.65803-0.30743
		c-0.21068-0.12527-0.41463-0.27368-0.61187-0.44427L125.99776,267.9769z"/>
	<polygon class="st0" points="137.98056,268.61685 133.45416,269.22015 132.45656,261.73282 133.76587,261.55838 
		134.63268,268.0762 137.85258,267.64539 	"/>
	<path class="st0" d="M141.14977,260.35892l1.15543-0.23129l4.09921,6.88498l-1.52194,0.30743l-1.23334-2.16168l-2.18477,0.44043
		l-0.27034,2.4614l-1.22177,0.24768L141.14977,260.35892z M141.5423,264.5936l1.68356-0.33633l-1.35648-2.51248L141.5423,264.5936z"
		/>
	<polygon class="st0" points="148.66916,260.85013 150.11412,266.06302 148.84135,266.41766 146.82492,259.13754 
		148.02843,258.80313 152.5596,263.1824 151.10886,257.94638 152.38162,257.59076 154.4173,264.86606 153.21381,265.20239 	"/>
	<path class="st0" d="M156.56763,256.18823c0.65131-0.23517,1.23622-0.34119,1.75476-0.31998
		c0.52045,0.02312,0.98032,0.14072,1.38051,0.35464c0.39732,0.21204,0.73788,0.50598,1.01688,0.87894
		c0.28091,0.37201,0.5041,0.79221,0.67151,1.26251c0.11641,0.32574,0.20299,0.65341,0.25879,0.97916
		c0.05482,0.32574,0.07214,0.64572,0.0481,0.95798c-0.02214,0.31033-0.08852,0.61487-0.19724,0.90881
		c-0.10869,0.29297-0.26936,0.5686-0.48195,0.82785c-0.21165,0.25827-0.47911,0.49536-0.80139,0.71317
		c-0.32133,0.21588-0.70613,0.40381-1.15733,0.5657l-1.7307,0.62259l-2.54361-7.11243L156.56763,256.18823z M156.35889,257.29749
		l1.88655,5.27841l0.37903-0.13684c0.34921-0.12433,0.65227-0.29684,0.91103-0.51559
		c0.25496-0.21878,0.45312-0.47995,0.58878-0.78448c0.13469-0.30551,0.20302-0.65341,0.20108-1.04181
		c-0.00194-0.38742-0.08562-0.81342-0.25014-1.27698c-0.11641-0.32382-0.26938-0.62256-0.46083-0.89819
		c-0.19336-0.27274-0.42232-0.49442-0.69266-0.66498c-0.27129-0.16867-0.58011-0.27179-0.9274-0.30551
		c-0.35016-0.03568-0.73978,0.02313-1.17081,0.17926L156.35889,257.29749z"/>
	<path class="st0" d="M176.33264,254.49037c-0.07504,0.33249-0.1626,0.61295-0.26361,0.84328
		c-0.10103,0.23035-0.22319,0.4337-0.36267,0.6062c-0.13953,0.17346-0.30305,0.32477-0.48969,0.4549
		c-0.18761,0.12912-0.40694,0.25925-0.659,0.3884c-0.47141,0.2438-0.9351,0.36234-1.38823,0.35849
		c-0.45407-0.0029-0.88219-0.10312-1.28816-0.30069c-0.40407-0.19757-0.77539-0.47705-1.11499-0.84039
		c-0.3396-0.36525-0.63013-0.78639-0.87448-1.26442c-0.15297-0.29973-0.27901-0.61005-0.37808-0.92711
		c-0.10197-0.31612-0.16451-0.63029-0.1953-0.94255c-0.02887-0.30937-0.02118-0.61681,0.02501-0.91652
		c0.04619-0.29973,0.13757-0.58595,0.27321-0.8587c0.13565-0.27081,0.3194-0.5233,0.55319-0.75365
		c0.23088-0.23225,0.51854-0.43657,0.86101-0.61197c0.20493-0.10408,0.40598-0.19179,0.60223-0.26118
		c0.1972-0.06842,0.39444-0.11565,0.58493-0.14262c0.19432-0.02603,0.39153-0.03181,0.59067-0.0106
		c0.20204,0.01927,0.40887,0.0636,0.62244,0.1301l-0.23473,1.13338c-0.16258-0.05589-0.31458-0.09926-0.46082-0.12625
		c-0.1443-0.02505-0.28572-0.03566-0.42329-0.03085c-0.13757,0.0058-0.27322,0.02795-0.40695,0.06844
		c-0.13466,0.04048-0.27419,0.0954-0.42039,0.17058c-0.29053,0.15034-0.50893,0.34599-0.65034,0.58693
		c-0.14236,0.24094-0.22607,0.50885-0.25012,0.79893c-0.02403,0.28912,0.00385,0.59174,0.08371,0.90977
		c0.07695,0.31612,0.19527,0.62643,0.35016,0.92809c0.20396,0.39996,0.43196,0.74786,0.68498,1.04953
		c0.25301,0.30165,0.5166,0.54259,0.78886,0.72183c0.27225,0.18216,0.54449,0.29202,0.81677,0.33441
		c0.27419,0.04048,0.53392,0.00098,0.77925-0.12527c0.21646-0.11179,0.39153-0.22647,0.52719-0.34406
		c0.13661-0.11951,0.2453-0.24382,0.32613-0.37682c0.08176-0.13205,0.14238-0.27467,0.18375-0.42792
		c0.03944-0.15129,0.07408-0.31996,0.09909-0.50307L176.33264,254.49037z"/>
	<path class="st0" d="M177.22348,246.48697l1.00534-0.61006l6.19069,5.08086l-1.32474,0.80473l-1.89233-1.61522l-1.90578,1.15842
		l0.58107,2.40742l-1.06787,0.64957L177.22348,246.48697z M179.02924,250.33423l1.46709-0.8905l-2.12704-1.8976L179.02924,250.33423
		z"/>
	<polygon class="st0" points="186.25392,241.70476 183.8392,243.39229 185.01863,245.08847 186.9408,243.74501 187.49686,244.54492 
		185.57469,245.88838 187.59306,248.78636 186.51077,249.54483 182.19603,243.34602 185.69402,240.9039 	"/>
	<path class="st0" d="M191.40646,237.70859l-2.31274,1.82727l1.27855,1.62486l1.84036-1.45332l0.60127,0.76523l-1.84132,1.4514
		l1.57774,2.00844l2.41084-1.9034l0.60417,0.76906l-3.44794,2.72258l-4.66394-5.9357l3.34883-2.64354L191.40646,237.70859z
		 M187.61317,238.1259l0.01729-2.6474l1.33049,0.22647l-0.61856,2.50092L187.61317,238.1259z"/>
	<path class="st0" d="M214.71158,221.27829c0.06732,0.33347,0.10388,0.62453,0.10678,0.87799
		c0.00288,0.25056-0.02213,0.48572-0.07985,0.69968c-0.05582,0.21394-0.14046,0.4202-0.2588,0.61777
		c-0.11543,0.19467-0.26164,0.40379-0.43674,0.62642c-0.33,0.41827-0.7023,0.71703-1.11694,0.90303
		c-0.41367,0.18504-0.84756,0.26889-1.29584,0.25925c-0.44832-0.0106-0.9024-0.11275-1.36032-0.30165
		c-0.46082-0.19371-0.89951-0.45586-1.31992-0.78835c-0.26265-0.20912-0.50603-0.43947-0.72826-0.68619
		c-0.22127-0.24768-0.40887-0.50691-0.56569-0.77774c-0.15489-0.27081-0.27515-0.55127-0.35594-0.8452
		c-0.08273-0.29202-0.11929-0.58981-0.10678-0.89532c0.01154-0.30357,0.07599-0.60811,0.19142-0.91554
		c0.11641-0.30649,0.29344-0.612,0.53297-0.91364c0.14334-0.17926,0.29054-0.34407,0.44063-0.48573
		c0.15199-0.14648,0.30977-0.27081,0.4733-0.37489c0.16643-0.10504,0.34154-0.18987,0.53297-0.25252
		c0.19049-0.06648,0.39926-0.11467,0.62148-0.14165l0.25302,1.13046c-0.17029,0.01349-0.32806,0.04048-0.47139,0.07516
		c-0.1424,0.03664-0.27516,0.08386-0.39732,0.14842c-0.12315,0.05975-0.23859,0.13782-0.34346,0.22937
		c-0.10582,0.09253-0.21068,0.20142-0.31168,0.33154c-0.20206,0.25633-0.31847,0.5233-0.34825,0.80183
		c-0.03275,0.28044,0.00287,0.55608,0.10002,0.83073c0.09911,0.27563,0.24916,0.53873,0.45312,0.79605
		c0.20201,0.25539,0.43677,0.48669,0.70326,0.69872c0.35016,0.2766,0.70323,0.50116,1.0563,0.67078
		c0.35596,0.1696,0.69458,0.28044,1.01494,0.33057c0.32228,0.05203,0.61572,0.04047,0.88219-0.03568
		c0.26648-0.07516,0.48296-0.22069,0.65514-0.43753c0.15297-0.19081,0.26459-0.36815,0.3396-0.53296
		c0.0741-0.16191,0.12122-0.32188,0.14142-0.47607c0.0202-0.15324,0.01541-0.30649-0.00865-0.46262
		c-0.02887-0.15707-0.06639-0.32285-0.11929-0.50017L214.71158,221.27829z"/>
	<polygon class="st0" points="219.80727,215.92055 217.20689,219.67917 211.00848,215.37798 211.75984,214.28992 
		217.1559,218.03598 219.00395,215.3616 	"/>
	<path class="st0" d="M215.8279,208.05101l0.60609-1.01192l7.84058,1.60847l-0.79945,1.33191l-2.42337-0.54453l-1.14961,1.91112
		l1.63641,1.86192l-0.64362,1.07072L215.8279,208.05101z M219.21428,210.61166l0.88315-1.47064l-2.76491-0.68813
		L219.21428,210.61166z"/>
	<polygon class="st0" points="227.43353,202.56575 226.92075,203.59409 221.92393,203.06306 226.13571,205.16788 
		225.54504,206.35231 218.79732,202.98018 219.4111,201.74947 226.20116,202.60527 221.38232,197.79329 221.99319,196.56549 
		228.74188,199.9386 228.15024,201.12305 223.93843,199.01726 	"/>
	<path class="st0" d="M226.15324,186.00015c0.12312-0.35754,0.27321-0.66789,0.45309-0.93097
		c0.17992-0.26215,0.37808-0.46838,0.60033-0.61775c0.22029-0.15036,0.45985-0.24094,0.71959-0.27565
		c0.25783-0.03178,0.52911,0,0.81483,0.0983c0.17894,0.06073,0.34154,0.15614,0.48582,0.28622
		c0.14722,0.12915,0.26843,0.27853,0.36943,0.45009c0.09814,0.1696,0.17316,0.35466,0.22319,0.55319
		c0.04909,0.2014,0.06447,0.40089,0.05002,0.6033c0.09622-0.1754,0.22322-0.34407,0.3781-0.50984
		c0.15489-0.16478,0.33672-0.30261,0.54257-0.41342c0.20781-0.11086,0.43774-0.18121,0.69077-0.21204
		c0.25301-0.0289,0.52429,0.00482,0.81195,0.10312c0.24338,0.08482,0.46082,0.21684,0.6532,0.40187
		c0.19339,0.18604,0.34251,0.41249,0.44832,0.68332c0.10681,0.26984,0.15971,0.57631,0.15971,0.92421
		c0,0.34502-0.06831,0.71895-0.20493,1.12471l-0.83984,2.45851l-7.13446-2.45081L226.15324,186.00015z M226.72371,187.33975
		l2.11359,0.73051l0.228-0.6669c0.07602-0.22264,0.12508-0.43465,0.14433-0.63319c0.0202-0.19853,0.00864-0.37682-0.03752-0.53487
		c-0.04617-0.16191-0.12413-0.29877-0.23476-0.41441c-0.11159-0.11565-0.25974-0.20625-0.44252-0.26888
		c-0.177-0.05975-0.34056-0.08676-0.4868-0.08c-0.14815,0.00674-0.2867,0.05685-0.41367,0.14938
		c-0.12698,0.09541-0.24629,0.23611-0.35692,0.42114c-0.11063,0.18506-0.21741,0.42502-0.31844,0.72281L226.72371,187.33975z
		 M229.75702,188.38541l2.25983,0.77292l0.32709-0.96083c0.08464-0.24673,0.12794-0.47417,0.12601-0.6804
		c0-0.20625-0.0327-0.38646-0.09621-0.54163c-0.06348-0.15614-0.15103-0.28624-0.25974-0.38744
		c-0.10872-0.10023-0.23088-0.17542-0.36365-0.22261c-0.15874-0.05301-0.3194-0.07712-0.48198-0.06747
		c-0.16162,0.00868-0.31555,0.05685-0.46179,0.14168c-0.14717,0.08575-0.28282,0.213-0.40982,0.38066
		c-0.12794,0.17059-0.2357,0.38647-0.32806,0.6544L229.75702,188.38541z"/>
	<path class="st0" d="M228.29665,178.99875l0.30014-1.13818l7.97818-0.63799l-0.39925,1.50343l-2.47916,0.14938l-0.57242,2.15686
		l2.08662,1.33383l-0.32324,1.20947L228.29665,178.99875z M232.25832,180.51759l0.44156-1.65858l-2.84761,0.10794
		L232.25832,180.51759z"/>
	<path class="st0" d="M237.37207,173.42386l-0.25012,1.29239l-7.40479-1.43503l0.40503-2.09711
		c0.09233-0.47221,0.21741-0.87122,0.37903-1.19698c0.16162-0.32573,0.35115-0.58304,0.5705-0.77194
		c0.22125-0.19276,0.46658-0.31802,0.74173-0.37877c0.27225-0.05879,0.56856-0.05879,0.88602,0.00484
		c0.20781,0.03952,0.41658,0.10793,0.62439,0.20143c0.2097,0.09541,0.40019,0.22743,0.57431,0.39417
		c0.17316,0.17059,0.31844,0.38354,0.43869,0.63799c0.12025,0.2554,0.19817,0.56572,0.2328,0.92712l3.58743-1.64029
		l-0.28284,1.45912l-3.4104,1.39067c-0.01636,0.07904-0.03464,0.16962-0.05869,0.26985
		c-0.02116,0.09926-0.05678,0.2149-0.1039,0.34117L237.37207,173.42386z M233.36137,172.64032
		c0.0327-0.09444,0.05865-0.1937,0.08176-0.29297c0.02116-0.09926,0.04425-0.20238,0.06348-0.30548
		c0.05099-0.2583,0.06447-0.4944,0.04524-0.71222c-0.02116-0.21686-0.0741-0.40671-0.15971-0.57056
		c-0.08658-0.16284-0.20203-0.29779-0.3521-0.40378c-0.14815-0.10506-0.32324-0.17735-0.52911-0.21782
		c-0.20396-0.03951-0.3829-0.04819-0.5378-0.02603c-0.15488,0.02121-0.29054,0.08673-0.40886,0.19467
		c-0.11737,0.1089-0.21742,0.26408-0.304,0.46935c-0.08562,0.20241-0.15778,0.4684-0.21935,0.79222l-0.11832,0.60039
		L233.36137,172.64032z"/>
	<path class="st0" d="M107.95605,1.7434c0.1135-0.28429,0.28476-0.42596,0.51082-0.42596h1.26701
		c0.228,0,0.38097,0.02794,0.4637,0.08482c0.07986,0.05685,0.1443,0.17444,0.19336,0.35367
		c0.03271,0.09735,0.05678,0.43564,0.07407,1.01195c0.01638,0.57825,0.03176,1.27021,0.04715,2.07493
		c0.01732,0.80475,0.02501,1.66344,0.02501,2.57418v2.53656v1.98819c0,0.74016-0.00288,1.50923-0.01154,2.3053
		c-0.00866,0.79701-0.01732,1.57764-0.02502,2.34189c-0.00769,0.76425-0.01538,1.45523-0.02404,2.07396
		c-0.00866,0.61875-0.0202,1.13048-0.03658,1.53717c-0.01635,0.40576-0.03365,0.6409-0.04906,0.7074
		c-0.04906,0.17926-0.1135,0.29685-0.19336,0.3537c-0.08273,0.05685-0.23569,0.08482-0.4637,0.08482h-0.65805v1.1218h5.16422
		v-1.1218h-0.65802c-0.228,0-0.38194-0.02797-0.46276-0.08482c-0.08176-0.05685-0.1462-0.17444-0.19624-0.3537
		c-0.01541-0.0665-0.03176-0.30164-0.04812-0.7074c-0.01635-0.4067-0.02789-0.91842-0.03558-1.53717
		c-0.00963-0.61872-0.01635-1.30971-0.02501-2.07396c-0.00867-0.76425-0.01539-1.54488-0.02405-2.34189
		c-0.00866-0.79607-0.01157-1.56997-0.01157-2.31686V9.95355V7.41699c0-0.91075,0.00772-1.76943,0.02407-2.57418
		c0.01539-0.80472,0.03174-1.49667,0.04906-2.07493c0.01538-0.57631,0.03943-0.9146,0.07119-1.01195
		c0.05003-0.17923,0.11447-0.29682,0.19624-0.35367c0.08083-0.05688,0.23476-0.08482,0.46276-0.08482h0.99858
		c0.47045,0,0.77058,0.12144,0.90144,0.36526c0.12985,0.24382,0.19432,0.64378,0.19432,1.19503h1.07072V0h-9.98399v2.87773h1.02266
		C107.78577,2.40745,107.84253,2.02869,107.95605,1.7434"/>
	<path class="st0" d="M118.28193,9.85623c0.01732-0.47128,0.04618-0.85001,0.08658-1.13433
		c0.03943-0.28526,0.08467-0.49246,0.13373-0.62257c0.04906-0.12914,0.1135-0.24479,0.19336-0.34117
		c0.16356-0.19564,0.34538-0.35467,0.54934-0.47705c0.20299-0.12144,0.42617-0.18214,0.66956-0.18214
		c0.71481,0,1.19679,0.18214,1.44884,0.54934c0.25204,0.36526,0.37711,0.91457,0.37711,1.64605
		c0,0.3749-0.04812,0.65631-0.14526,0.84234c-0.09812,0.18697-0.26071,0.32188-0.48777,0.40187l-2.84859,1.17192
		C118.25882,10.94527,118.26654,10.32752,118.28193,9.85623 M115.74986,12.19715c0,0.89533,0.07695,1.66729,0.23185,2.31686
		c0.15487,0.65246,0.37711,1.21336,0.66956,1.68461c0.37327,0.61872,0.83602,1.11024,1.38821,1.4755
		c0.55125,0.3672,1.17659,0.54934,1.87501,0.54934c1.83365,0,3.05927-1.00904,3.67689-3.02423l-0.65705-0.1465
		c-0.16162,0.53487-0.49834,1.01965-1.01012,1.45141c-0.51182,0.43079-1.1814,0.64569-2.00971,0.64569
		c-0.40598,0-0.77155-0.186-1.0948-0.5609c-0.08273-0.09732-0.15968-0.21973-0.23281-0.36526
		c-0.0731-0.1465-0.13371-0.34599-0.18279-0.59849c-0.04906-0.25152-0.08464-0.58499-0.10966-1.00036
		c-0.02404-0.4144-0.03561-0.94639-0.03561-1.59691l3.31134-1.46491c0.40501-0.17829,0.735-0.34117,0.98705-0.48764
		c0.25108-0.1465,0.45022-0.30167,0.59548-0.46358c0.14721-0.16191,0.24435-0.33732,0.29344-0.52428
		c0.0481-0.186,0.07214-0.40284,0.07214-0.64569c0-1.15553-0.32037-2.01713-0.96106-2.58671
		c-0.64264-0.56955-1.52194-0.85386-2.64272-0.85386c-0.55221,0-1.06784,0.12626-1.54598,0.37779
		c-0.47908,0.25249-0.90622,0.58981-1.2795,1.01289c-0.42236,0.48767-0.75135,1.10639-0.98705,1.85426
		C115.86721,9.99308,115.74986,10.97803,115.74986,12.19715"/>
	<path class="st0" d="M127.65678,17.15031c-0.64842,0-1.23816-0.21588-1.76536-0.64569
		c-0.52814-0.43176-0.83984-1.0206-0.93799-1.7704l-0.73016,0.19661c0.03271,0.53584,0.1539,1.00904,0.36555,1.41476
		c0.21071,0.40576,0.4743,0.75172,0.79081,1.03604c0.31649,0.28526,0.67822,0.49631,1.0842,0.63413
		c0.40504,0.13879,0.82831,0.20817,1.26701,0.20817c0.55029,0,1.07073-0.08482,1.55752-0.25538
		c0.4868-0.17058,0.91298-0.42405,1.27856-0.75751c0.36557-0.33346,0.6532-0.74787,0.86389-1.24421
		c0.21164-0.49631,0.31845-1.07745,0.31845-1.74437c0-0.45487-0.05293-0.85772-0.15971-1.20659
		c-0.1058-0.34985-0.29535-0.69487-0.57242-1.03795c-0.3242-0.43852-0.79462-0.80475-1.41225-1.09771
		c-0.38962-0.19467-0.73019-0.36526-1.02266-0.51175c-0.29245-0.14744-0.55125-0.29296-0.77925-0.43946
		c-0.30879-0.21105-0.53586-0.42984-0.68112-0.65825c-0.14718-0.22744-0.21935-0.50402-0.21935-0.82978
		c0-0.43946,0.11256-0.78063,0.34056-1.02445c0.228-0.24479,0.56857-0.36623,1.02266-0.36623
		c0.37422,0,0.67726,0.0742,0.91295,0.21973c0.23573,0.1465,0.44353,0.35852,0.62053,0.63413
		c0.14719,0.22841,0.24533,0.44334,0.29245,0.64763c0.04906,0.20335,0.07407,0.42502,0.07407,0.66981v0.21973h0.9736v-3.4396
		h-0.9736v1.14686c-0.24435-0.43946-0.56084-0.74016-0.95045-0.90301c-0.38963-0.16288-0.79466-0.24385-1.21796-0.24385
		c-0.95819,0-1.74512,0.28432-2.36178,0.85389c-0.61763,0.56958-0.92451,1.33285-0.92451,2.29275
		c0,0.42308,0.07601,0.82881,0.23088,1.22009c0.15392,0.39032,0.40116,0.75557,0.74269,1.09674
		c0.1953,0.19564,0.44253,0.38646,0.74172,0.5744c0.30114,0.18697,0.60896,0.37008,0.92645,0.54837
		c0.31555,0.17926,0.61665,0.35849,0.90141,0.53775c0.28381,0.17829,0.507,0.34888,0.66959,0.51175
		c0.24339,0.24288,0.40984,0.47128,0.49931,0.68331c0.08849,0.21105,0.1337,0.50402,0.1337,0.87892
		c0,0.63319-0.17796,1.11698-0.53679,1.45044C128.66402,16.98361,128.20895,17.15031,127.65678,17.15031"/>
	<path class="st0" d="M133.99023,8.24474c0.01636,0.31035,0.02789,0.71993,0.03558,1.23265
		c0.00867,0.51175,0.01442,1.17095,0.01442,1.97566v3.11096c0,0.81339,0.01541,1.50056,0.04715,2.06146
		c0.0327,0.56187,0.07698,1.03312,0.13469,1.41476c0.05676,0.38167,0.12892,0.69584,0.21935,0.93966
		c0.08849,0.24479,0.18951,0.4549,0.30304,0.63416c0.32515,0.48764,0.69458,0.80954,1.10922,0.96469
		c0.41367,0.15323,0.88699,0.23132,1.42479,0.23132c0.37326,0,0.7061-0.06459,0.99858-0.19564
		c0.29147-0.13012,0.54259-0.293,0.75423-0.48767c0.21069-0.19564,0.37712-0.41923,0.49835-0.67172
		c0.12216-0.25249,0.19048-0.49923,0.20779-0.74304l-0.68112-0.1465c-0.08177,0.3084-0.23666,0.58113-0.46468,0.81822
		c-0.22609,0.23514-0.52719,0.35273-0.90047,0.35273c-0.29243,0-0.54739-0.07806-0.76674-0.23129
		c-0.21933-0.15517-0.37711-0.4202-0.47523-0.79316c-0.06447-0.21202-0.11353-0.41634-0.14526-0.61005
		c-0.03273-0.19564-0.06062-0.43564-0.08563-0.71992c-0.02405-0.28432-0.04137-0.64572-0.04906-1.08518
		c-0.00771-0.44043-0.01251-1.01674-0.01251-1.73282c0-1.02445,0.00481-1.89858,0.01251-2.62233
		c0.00769-0.72378,0.02501-1.35794,0.04906-1.9034c0.02501-0.54355,0.04906-1.02448,0.07314-1.43791
		c0.02403-0.41634,0.06155-0.82592,0.10867-1.23262h1.99815V6.26907h-1.99815V1.51203h-0.92451v0.48864
		c0,0.48667-0.06444,0.98783-0.19432,1.49959c-0.12988,0.5127-0.31264,0.97242-0.54837,1.37912
		c-0.23473,0.4067-0.51562,0.74013-0.83984,0.99939c-0.32518,0.26117-0.6821,0.39032-1.07172,0.39032h-0.17027v1.09868h1.29008
		C133.9575,7.64337,133.97385,7.93636,133.99023,8.24474"/>
	<path class="st0" d="M118.69783,61.02062c28.01828,0,52.87531,13.80276,68.16302,34.97332
		c1.27277,0.5426,2.41084,1.24997,3.40269,2.13277c0.82062,0.73051,1.49887,1.59018,2.06262,2.55104h2.12512V97.0271v-1.35503
		h1.35262h0.65227c-16.38922-25.70402-45.11943-42.78254-77.75835-42.78254c-38.1264,0-70.92215,23.30236-84.94091,56.43686
		c0.00866,0.00385,0.01828,0.00674,0.02694,0.01059c1.43824,0.64187,2.79567,1.53429,4.03477,2.64935
		c0.86775,0.78255,1.70087,1.72221,2.49166,2.791C52.52813,83.35059,83.05731,61.02062,118.69783,61.02062"/>
	<path class="st0" d="M118.69783,229.48892c-41.89565,0-76.72996-32.20833-83.05629-72.42538h-8.2052
		c6.39657,44.71773,44.88177,80.5565,91.26148,80.5565c50.83965,0,92.20041-41.43521,92.20041-92.36526
		c0-1.55643-0.03946-3.10422-0.11641-4.64236h-8.1292c0.08369,1.53717,0.12891,3.084,0.12891,4.64236
		C202.78154,191.70148,165.06114,229.48892,118.69783,229.48892"/>
	<path class="st0" d="M118.24579,248.32597c56.73308,0,102.8886-46.23753,102.8886-103.07149
		c0-1.55643-0.04039-3.10228-0.10965-4.64233h-4.06172c0.07118,1.53908,0.11255,3.08591,0.11255,4.64233
		c0,54.59225-44.33438,99.00545-98.82977,99.00545c-50.04024,0-91.50873-37.45207-97.95436-85.84358
		c-0.07118-0.5368-0.13661-1.07553-0.19914-1.61525h-4.08575c0.05964,0.53876,0.11736,1.07845,0.18567,1.61525
		C22.66381,209.05823,65.96306,248.32597,118.24579,248.32597"/>
	<path class="st0" d="M205.20052,98.23581c0.0808,0.09929,0.17316,0.18311,0.24915,0.28817
		c0.07503,0.10506,0.15105,0.21299,0.22705,0.32478c0.93124-0.99554,1.9837-1.8157,3.13431-2.46912
		c-17.40898-32.244-51.47462-54.19615-90.56497-54.19615c-28.6946,0-54.67915,11.83284-73.35896,30.87838h3.99051h1.35263v0.42982
		c17.73125-16.87323,41.68688-27.24216,68.01582-27.24216C155.7654,46.24952,188.46687,67.30349,205.20052,98.23581"/>
	<path class="st0" d="M39.93252,73.46371c19.53218-21.54258,47.70344-35.08991,78.9734-35.08991
		c40.69405,0,76.1354,22.94481,94.12257,56.59587c0.45889-0.07323,0.93413-0.13491,1.43631-0.17732
		c-18.13724-34.3276-54.1635-57.77357-95.55888-57.77357c-32.55911,0-61.80013,14.50337-81.62573,37.39809h0.44253
		C38.37593,74.00632,39.11286,73.68732,39.93252,73.46371"/>
	<path class="st0" d="M225.49164,140.61261c0.06635,1.54008,0.10678,3.08688,0.10678,4.64336
		c0,58.93486-47.86218,106.88115-106.69253,106.88115c-54.38187,0-99.38776-40.97261-105.88245-93.72026
		c-0.06543-0.53778-0.12602-1.07651-0.18471-1.6162h-1.36129c0.05773,0.53969,0.1193,1.07841,0.18471,1.6162
		c6.50336,53.49646,52.11436,95.07529,107.24374,95.07529c59.57592,0,108.04516-48.55438,108.04516-108.23618
		c0-1.55647-0.04044-3.10327-0.10585-4.64336H225.49164z"/>
	<path class="st0" d="M64.67076,141.99347c0.98799-0.05685,1.64314-0.58788,1.85672-1.53137
		c0.16162-0.71994,0.25589-1.47935,0.22125-2.21373c-0.17316-3.66992-0.41464-7.33408-0.60415-11.00306
		c-0.28476-5.52323-0.51854-11.04932-0.83697-16.56965c-0.08755-1.52176,0.34728-2.70909,1.50846-3.68536
		c1.06306-0.89242,1.56812-2.07301,1.56043-3.46948c-0.00288-0.54452,0.04424-1.09192,0.00672-1.63452
		c-0.21068-3.0377-0.4329-6.0764-0.66766-9.11414c-0.06253-0.80277-0.17413-1.60367-0.28763-2.40163
		c-0.01635-0.11662-0.17125-0.21202-0.26073-0.31708c-0.05579,0.11276-0.12794,0.22164-0.16162,0.34117
		c-0.02692,0.09347-0.00575,0.20043-0.00575,0.30164c-0.00097,3.12929,0,6.25854-0.00288,9.38783
		c0,0.22167,0.06347,0.49922-0.04427,0.65054c-0.17604,0.24961-0.47042,0.57822-0.70999,0.57437
		c-0.23376-0.00482-0.4858-0.36429-0.67725-0.60908c-0.08179-0.10408-0.03849-0.31226-0.04234-0.47417
		c-0.09524-3.1871-0.1876-6.37613-0.28669-9.56323c-0.00672-0.21106-0.06445-0.41923-0.09811-0.62837
		c-0.07407,0.00774-0.14721,0.01735-0.22128,0.02505c-0.01923,0.14938-0.05099,0.29879-0.05484,0.44911
		c-0.09042,3.16785-0.17507,6.33566-0.26553,9.5035c-0.00769,0.28141,0.03561,0.61581-0.09908,0.8269
		c-0.14815,0.23032-0.47427,0.4732-0.72343,0.47222c-0.21068,0-0.45408-0.31611-0.61475-0.54066
		c-0.08945-0.12626-0.04617-0.35175-0.05098-0.5339c-0.07407-3.22855-0.14334-6.45807-0.23089-9.68661
		c-0.00577-0.17059-0.16835-0.33729-0.25782-0.50402c-0.07793,0.159-0.2155,0.31514-0.2232,0.47802
		c-0.04232,0.88663-0.05387,1.77519-0.0731,2.66283c-0.05292,2.40163-0.10006,4.80425-0.15874,7.2059
		c-0.01443,0.62452-0.31555,1.00037-0.76577,0.95604c-0.5599-0.05591-0.71096-0.44238-0.6994-0.94736
		c0.0125-0.50404,0.00289-1.00903,0.00289-1.51405c0-2.72547,0.00577-5.45091-0.01059-8.17638
		c-0.00097-0.2207-0.1366-0.44043-0.20972-0.66016c-0.09332,0.21394-0.23859,0.42113-0.27034,0.64378
		c-0.10486,0.71893-0.19241,1.44079-0.24339,2.16454c-0.23474,3.33939-0.46082,6.68068-0.67824,10.02199
		c-0.11546,1.76656,0.46754,3.24397,1.84998,4.38985c0.99668,0.82592,1.31126,1.91013,1.24103,3.18808
		c-0.20396,3.7075-0.34633,7.4189-0.53971,11.12835c-0.28764,5.502-0.60127,11.00404-0.89084,16.50701
		c-0.02983,0.58113-0.01732,1.17288,0.05291,1.75017c0.17894,1.49573,0.95145,2.16263,2.45896,2.17709
		C63.86553,142.0253,64.2686,142.01662,64.67076,141.99347"/>
	<path class="st0" d="M19.93692,155.44577h6.8545v-2.80061v-1.24518h-0.08659h-1.40361c-0.76,0-1.28623-0.10696-1.57774-0.30838
		c-0.29341-0.2072-0.55606-0.63222-0.78791-1.27794c-0.05867-0.23514-0.11736-1.0553-0.17701-2.46333
		c-0.05773-1.40512-0.10102-3.19576-0.13084-5.36612c-0.02886-2.17033-0.05772-4.60284-0.08755-7.30325
		c-0.02983-2.69656-0.05869-5.43745-0.08658-8.22557c-0.02021-1.84075-0.03078-3.6468-0.03752-5.43744
		c-0.00289-0.91845-0.00674-1.83881-0.00674-2.74377v-7.17026c1.01014,0.13782,1.94619,0.37969,2.81203,0.71701
		c0.23569,0.09253,0.46851,0.18793,0.69362,0.29394c1.05151,0.49922,2.04432,1.24806,2.97847,2.24265
		c0.17893,0.19176,0.35498,0.39993,0.53104,0.61005c0.50891,0.60619,1.00533,1.27986,1.4873,2.03831
		c0.22126,0.3479,0.44062,0.71222,0.65611,1.09289c0.84755,1.49379,1.73744,3.32878,2.67349,5.49911
		c0.7148,1.61523,1.38725,3.29408,2.01931,5.03268c0.60609,1.66823,1.17561,3.3914,1.70473,5.17239
		c1.08036,3.63622,2.32332,7.18376,3.72404,10.64554c0.87738,2.22816,1.73936,4.04581,2.58595,5.45383
		c0.84563,1.409,1.78168,2.52213,2.80529,3.34323c1.02071,0.81918,2.17611,1.39359,3.46044,1.71449
		c1.28527,0.32288,2.77546,0.48572,4.47153,0.48572h5.78376v-4.04579h-3.15547c-1.34494,0-2.4253-0.29491-3.24207-0.88181
		c-0.81964-0.58693-1.63642-1.61333-2.45414-3.07918c-0.99474-1.87737-1.87116-3.87135-2.63021-5.98099
		c-0.76-2.11253-1.48922-4.23758-2.19054-6.37997c-0.70036-2.13953-1.38823-4.26556-2.05875-6.37711
		c-0.67247-2.11254-1.38918-4.13641-2.14822-6.07352c-0.87546-2.28601-1.81055-4.20676-2.80433-5.76126
		c-0.12507-0.19565-0.25494-0.37491-0.3829-0.56187c-0.8841-1.30009-1.82017-2.4113-2.81683-3.31046
		c-1.13424-1.02254-2.35698-1.82632-3.66824-2.41322c-0.00385-0.00194-0.00769-0.00482-0.01251-0.00579
		c-1.31414-0.58499-2.73122-1.05336-4.25027-1.40515c1.57774-0.64569,2.93613-1.74628,4.07614-3.30178
		c1.13809-1.55064,2.05972-3.26708,2.76104-5.14542c0.99186-2.63971,1.72205-5.21965,2.18959-7.74178
		c0.44928-2.42574,1.06498-5.07507,1.83941-7.93448c0.03078-0.11276,0.05772-0.2207,0.08947-0.3354
		c1.05246-4.22409,2.77451-6.33566,5.17094-6.33566h0.33383h3.43542v-3.5668v-0.39129h-5.3008h-0.39733
		c-1.93369,0-3.48353,0.39611-4.69184,1.14783c-0.14334,0.08868-0.30207,0.16094-0.43484,0.2602
		c-0.23089,0.17252-0.44926,0.36817-0.66765,0.56187c-0.83504,0.74304-1.57292,1.64993-2.21942,2.71391
		c-0.10294,0.16961-0.2126,0.32864-0.31074,0.50693c-0.81964,1.3502-1.47768,2.87485-1.97313,4.57394
		c-0.49642,1.70099-0.93414,3.46081-1.31414,5.27939c-0.03175,0.15034-0.05964,0.30743-0.09044,0.45778
		c-0.10582,0.50884-0.20299,1.03313-0.30592,1.54582c-0.23569,1.17483-0.47525,2.34095-0.6994,3.53889
		c-0.31266,1.67593-0.70613,3.27094-1.16021,4.80522c-0.05387,0.18406-0.09813,0.37876-0.15488,0.5609
		c-0.64264,2.34769-1.47577,4.28191-2.49745,5.80656c-1.02265,1.52656-2.43971,2.31975-4.25027,2.37466v-0.7999v-8.05883v-0.1147
		c0-1.01865,0.00385-2.01037,0.00961-2.99049c0.01348-2.06434,0.03752-4.04965,0.07793-5.94052
		c0.05772-2.78233,0.11736-5.1599,0.17508-7.12494c0.05773-1.96508,0.14624-3.12353,0.2636-3.47528
		c0.23185-0.64281,0.49449-1.08421,0.78791-1.31936c0.2915-0.23323,0.81773-0.35178,1.57774-0.35178h1.4902v-3.95809H10.05298
		v3.95809h1.40072c0.81677,0,1.37186,0.11855,1.66624,0.35178c0.29054,0.23515,0.52528,0.67654,0.70037,1.31936
		c0.11639,0.35175,0.21837,1.61523,0.30689,3.78271c0.08753,2.17033,0.14527,4.75125,0.17508,7.74366
		c0.02886,2.99052,0.05772,6.15834,0.0885,9.5006c0.02887,3.34325,0.0433,6.42239,0.0433,9.23751v7.1712
		c0,0.04821,0,0.09927,0,0.14844c-0.00097,1.94675-0.01155,3.96194-0.02694,6.01472
		c-0.00578,0.71702-0.00963,1.42153-0.01637,2.15011c-0.03078,2.87485-0.05964,5.68994-0.0885,8.44817
		c-0.02981,2.75824-0.07407,5.24663-0.12987,7.47771c-0.05964,2.22818-0.1193,4.07376-0.17702,5.5425
		c-0.05869,1.46394-0.11736,2.31493-0.17508,2.55006c-0.1751,0.64572-0.40984,1.07074-0.70037,1.27794
		c-0.16162,0.11082-0.40982,0.18985-0.72922,0.24094c-0.26168,0.04239-0.56952,0.06744-0.93702,0.06744h-0.41367h-0.98705v4.04579
		h1.29105h1.3584h3.15739H19.93692z"/>
	<path class="st0" d="M75.03726,104.15292c0.05772,1.1141,0.10197,2.5973,0.13083,4.44288
		c0.02982,1.84846,0.04424,4.22408,0.04424,7.12594v11.21894c0,2.9317,0.05869,5.41045,0.17606,7.43333
		c0.11641,2.0229,0.27706,3.7249,0.48102,5.10208c0.2049,1.37814,0.46754,2.50862,0.78887,3.38948
		c0.32034,0.87895,0.68688,1.64127,1.0948,2.28699c1.16981,1.75978,2.49936,2.91531,3.98859,3.47525
		c1.49017,0.55704,3.19971,0.83459,5.12666,0.83459c1.34396,0,2.54266-0.23611,3.59418-0.70448
		c1.05149-0.46744,1.95774-1.0553,2.71676-1.75983c0.7581-0.7016,1.35841-1.51016,1.79709-2.41705
		c0.43868-0.9117,0.68594-1.80412,0.74367-2.68498l-2.45415-0.52621c-0.2915,1.11311-0.84563,2.09518-1.66336,2.94519
		c-0.81967,0.85098-1.90002,1.27795-3.24399,1.27795c-1.05149,0-1.97216-0.28047-2.76007-0.83655
		c-0.78887-0.55705-1.35841-1.51018-1.70954-2.86038c-0.23379-0.76331-0.40982-1.49382-0.52623-2.1983
		c-0.11738-0.70354-0.2184-1.56802-0.30688-2.59633c-0.08659-1.02542-0.14624-2.3313-0.17413-3.91377
		c-0.02983-1.58534-0.04427-3.66704-0.04427-6.24698c0-3.69405,0.01444-6.84839,0.04427-9.45916
		c0.02789-2.60788,0.08755-4.89487,0.17413-6.86282c0.08849-1.9622,0.17603-3.69404,0.26358-5.19071
		c0.08852-1.49382,0.21935-2.97411,0.39541-4.44288h7.18639v-3.95712h-7.18639V79.8714h-3.33154v1.75979
		c0,1.76076-0.23376,3.56201-0.70133,5.41048c-0.46754,1.84846-1.12556,3.5061-1.97022,4.96904
		c-0.84853,1.46973-1.85674,2.67247-3.02464,3.60828c-1.17081,0.9406-2.45415,1.409-3.8568,1.409h-0.61184v3.95712h4.64468
		C74.91988,101.98355,74.97952,103.03885,75.03726,104.15292"/>
	<path class="st0" d="M98.00014,135.29988c1.343,1.5237,2.87648,2.71294,4.6014,3.56104
		c1.72299,0.85098,3.5778,1.27504,5.56441,1.27504c6.60245,0,11.01337-3.63332,13.23376-10.90863l-2.36469-0.61487
		c-0.46947,1.93425-1.56524,3.63525-3.28726,5.10207c-1.72492,1.46585-3.81255,2.20023-6.2667,2.20023
		c-2.39739,0-4.29548-0.76134-5.69622-2.28889c-0.29342-0.35272-0.54065-0.80376-0.74557-1.36368
		c-0.2049-0.55801-0.36558-1.37721-0.48102-2.46143c-0.11929-1.08708-0.20586-2.50861-0.26358-4.26743
		c-0.05966-1.76079-0.08852-4.04774-0.08852-6.86282c0-3.28446,0.02885-5.95403,0.08852-8.00777
		c0.05772-2.04987,0.17509-3.66415,0.35016-4.83798c0.1751-1.17289,0.37906-2.05181,0.61284-2.63971
		c0.23376-0.58402,0.52718-1.08324,0.87737-1.49574c0.46754-0.64281,1.05055-1.18636,1.75188-1.62679
		c0.70227-0.44043,1.45941-0.65919,2.27905-0.65919c1.86922,0,3.22858,0.29296,4.07517,0.87795
		c0.8466,0.5879,1.41613,1.29144,1.70954,2.11157c-1.34493,0.29393-2.38201,1.02833-3.11123,2.20119
		c-0.73209,1.17191-1.0948,2.52213-1.0948,4.0458c0,1.70199,0.53873,3.15434,1.62009,4.3542
		c1.08132,1.2037,2.46856,1.80414,4.16272,1.80414c1.57869,0,2.9063-0.70354,3.98859-2.11157
		c1.08035-1.40804,1.62103-3.04832,1.62103-4.92472c0-1.64417-0.24917-3.18229-0.74366-4.6202
		c-0.49834-1.436-1.2718-2.68306-2.32329-3.73836c-1.05249-1.05627-2.39646-1.87737-4.03287-2.4643
		c-1.63641-0.58499-3.59225-0.87892-5.87129-0.87892c-1.87019,0-3.63746,0.35273-5.30273,1.05624
		c-1.66336,0.70354-3.14106,1.72993-4.4244,3.07917c-1.69607,1.70102-2.99482,3.98797-3.9001,6.86185
		c-0.90719,2.87388-1.35935,6.68453-1.35935,11.43578c0,4.22314,0.42233,7.64058,1.27087,10.25138
		C95.2968,131.35338,96.47914,133.53912,98.00014,135.29988"/>
	<path class="st0" d="M141.3808,135.21072c-0.99571,0-1.76823-0.14645-2.32332-0.44136
		c-0.55606-0.293-0.97839-0.79222-1.2699-1.49574c-0.29245-0.70451-0.48198-1.64125-0.56953-2.81415
		c-0.08946-1.17191-0.13083-2.60979-0.13083-4.31178v-18.03453c0-1.93714,0.56953-3.6526,1.70761-5.14642
		c1.14001-1.49667,2.7014-2.24454,4.68991-2.24454c0.93318,0,1.79613,0.21876,2.58501,0.65919
		c0.78885,0.44043,1.44592,0.98398,1.97119,1.62679c0.58397,0.70354,1.00821,1.4832,1.27182,2.33324
		c0.26169,0.85195,0.39348,1.71546,0.39348,2.59438v17.41969c0,2.28889-0.01445,4.09303-0.0433,5.41238
		c-0.02983,1.31935-0.14719,2.31683-0.35017,2.99049c-0.20589,0.67654-0.51277,1.0871-0.91972,1.23071
		c-0.40982,0.14743-0.9649,0.22163-1.66624,0.22163h-1.22658v4.04677h16.91545v-4.04677c-0.81964,0-1.4902-0.08864-2.0174-0.26308
		c-0.52527-0.17828-0.95047-0.71799-1.26987-1.6297c-0.32324-0.90977-0.54164-2.3313-0.65707-4.26553
		c-0.11739-1.93713-0.17604-4.66451-0.17604-8.18217v-11.87816c0-1.99302-0.38002-3.8116-1.13907-5.4548
		c-0.76001-1.64029-1.81151-3.04832-3.15547-4.22409c-1.16985-0.99362-2.52821-1.78776-4.07614-2.37466
		c-1.54793-0.58501-3.25743-0.87895-5.12572-0.87895c-1.87117,0-3.40465,0.27756-4.60141,0.8346
		c-1.19772,0.55996-2.20595,1.42538-3.02368,2.5973c0.11641-6.74621,0.20396-12.3475,0.26265-16.80385
		c0.05869-4.45635,0.08755-8.18507,0.08755-11.17462h-12.97018v4.0458c1.22755,0,2.14729,0.11953,2.75912,0.35273
		c0.61475,0.23517,0.97839,0.99747,1.09577,2.28889c0.29243,4.75031,0.46851,8.93008,0.52719,12.53545
		c0.05675,3.60825,0.08755,7.05364,0.08755,10.33807c0,5.33818-0.03081,10.55686-0.08755,15.66182
		c-0.05869,5.103-0.23476,10.35157-0.52719,15.74854c-0.05772,1.81761-0.90626,2.72641-2.54073,2.72641h-1.31416v4.04677h16.82697
		V135.21072z"/>
	<path class="st0" d="M185.90245,110.97015c-0.35016,0.67657-0.93605,1.15939-1.75281,1.45335l-6.70442,2.76112l-3.5499,1.46297
		c0-2.75823,0.02885-4.98642,0.08852-6.68839c0.05675-1.69908,0.15871-3.06182,0.30495-4.09109
		c0.14526-1.02542,0.30786-1.77328,0.48296-2.24169c0.17506-0.46837,0.40788-0.88181,0.70132-1.23359
		c0.58298-0.70351,1.24007-1.27406,1.97119-1.71546c0.73018-0.43849,1.53444-0.65919,2.4099-0.65919
		c1.47673,0,2.66867,0.22456,3.5961,0.65919c0.68687,0.32287,1.23331,0.75751,1.61908,1.31938
		c0.90529,1.32224,1.35841,3.30178,1.35841,5.93955C186.42775,109.28555,186.25266,110.29746,185.90245,110.97015
		 M189.36485,99.13923c-0.22707-0.20238-0.46948-0.38644-0.71291-0.5686c-2.2348-1.6692-5.16226-2.51054-8.79779-2.51054
		c-1.9866,0-3.84142,0.4539-5.56537,1.36368c-1.72299,0.90883-3.25743,2.12604-4.60043,3.64971
		c-1.52003,1.76076-2.70238,3.98895-3.54991,6.68839c-0.84756,2.69656-1.27086,6.2441-1.27086,10.64454
		c0,3.22664,0.27612,6.01184,0.83215,8.35664c0.55511,2.34769,1.35938,4.37058,2.41087,6.07255
		c1.34396,2.22816,3.00923,4.00148,4.99583,5.32083c1.9847,1.31935,4.23586,1.97952,6.74771,1.97952
		c4.74861,0,8.35815-1.89085,10.84021-5.65332c0.96877-1.46873,1.77112-3.21312,2.39449-5.25531l-2.36562-0.5262
		c-0.58589,1.93423-1.7971,3.67958-3.63843,5.23219c-0.23186,0.19562-0.47237,0.37872-0.72153,0.54932
		c-1.7336,1.18829-3.90295,1.78487-6.50912,1.78487c-1.46133,0-2.77451-0.67464-3.94337-2.02484
		c-0.29245-0.35078-0.56857-0.79219-0.83311-1.32129c-0.26265-0.5262-0.48102-1.24419-0.65709-2.15396
		c-0.17413-0.90883-0.30592-2.11157-0.39441-3.60828c-0.08661-1.49379-0.13084-3.41357-0.13084-5.76223l3.5499-1.57185
		l8.36972-3.70754c1.4594-0.64281,2.64174-1.23068,3.54991-1.75979c0.90428-0.52716,1.62102-1.08421,2.14725-1.67113
		c0.52527-0.58499,0.8745-1.21721,1.05052-1.88991c0.17607-0.67366,0.26265-1.45235,0.26265-2.33033
		c0-1.30492-0.12604-2.49321-0.3521-3.58995c-0.33575-1.62582-0.91489-3.02808-1.74707-4.19903
		C190.32689,100.1155,189.87952,99.59702,189.36485,99.13923"/>
	<path class="st0" d="M209.44673,97.58432c-1.19485,0.68331-2.25888,1.56997-3.18626,2.66283
		c-0.11739,0.13879-0.22897,0.28529-0.34251,0.43082c-0.12697,0.16288-0.26358,0.31319-0.38574,0.48475
		c-0.10005-0.17249-0.19626-0.32285-0.29439-0.48475c-0.304-0.49923-0.60127-0.96375-0.88795-1.36371
		c-0.38193-0.52717-0.83311-0.9676-1.35841-1.31936c-0.52719-0.35272-1.17078-0.60233-1.92792-0.74883
		c-0.76096-0.14362-1.72589-0.21876-2.89282-0.21876h-0.86967h-1.49692v3.65066v0.30743h0.87639
		c0.70132,0,1.24104,0.133,1.62199,0.39705c0.37906,0.26214,0.74557,0.57246,1.0948,0.92425
		c0.17606,0.17538,0.30688,0.45487,0.3954,0.83459c0.08658,0.38261,0.15968,0.98398,0.21837,1.80508
		c0.05772,0.81918,0.08852,1.96507,0.08852,3.42999v5.71788c0,4.19806-0.01541,7.47769-0.04233,9.86584
		c-0.00098,0.08289-0.00194,0.17253-0.00288,0.25347c-0.03079,2.4055-0.05774,4.2212-0.08661,5.4548
		c-0.03076,1.22974-0.08849,2.08072-0.17506,2.54909c-0.08852,0.47128-0.19145,0.88087-0.30786,1.2336
		c-0.1472,0.4202-0.34441,0.76233-0.58876,1.03218c-0.43677,0.48285-1.02745,0.72763-1.77689,0.72763h-1.31508v4.04677h6.76213
		h8.13301h2.01932v-4.04677h-0.87543c-0.62151,0-1.11502-0.05109-1.5085-0.14264c-0.23471-0.05495-0.44252-0.12144-0.59547-0.20915
		c-0.17511-0.10117-0.31746-0.2332-0.45023-0.37584c-0.17703-0.19179-0.32616-0.41055-0.42621-0.68039
		c-0.11734-0.23227-0.18951-0.52911-0.21837-0.88184c-0.03079-0.35176-0.05966-1.06686-0.08755-2.15302
		c-0.02982-1.0871-0.04424-2.68306-0.04424-4.79464v-1.63737v-7.16255c0-2.40263,0.02885-4.41203,0.08658-6.02534
		c0.05869-1.61329,0.16064-2.94906,0.30688-4.00529c0.04619-0.32961,0.10005-0.63223,0.15681-0.92231
		c0.12604-0.63607,0.27803-1.1835,0.45793-1.62682c0.26262-0.64569,0.56857-1.20274,0.91971-1.67114
		c0.31361-0.39511,0.70132-0.73534,1.12268-1.05048c0.20396-0.15324,0.40117-0.31226,0.63013-0.4462
		c0.70134-0.41055,1.57678-0.61487,2.62924-0.61487c0.40311,0,0.78119,0.03374,1.14386,0.08673
		c0.63782,0.09541,1.21121,0.2737,1.72302,0.53487c0.58682,0.3007,1.09479,0.70354,1.51518,1.223
		c0.40791,0.53005,0.74463,1.02927,1.00725,1.49667c0.26361,0.47226,0.46758,1.17577,0.61475,2.11255
		c0.1443,0.93965,0.24727,2.21468,0.30592,3.82703c0.00096,0.03853,0.00194,0.08191,0.00385,0.12141
		c0.04233,1.23265,0.06929,2.80259,0.07985,4.71273c0.00291,0.57343,0.00482,1.1748,0.00482,1.8099
		c0,3.98798-0.03079,7.11147-0.08852,9.3676c-0.05865,2.259-0.13179,3.99182-0.21935,5.19073
		c-0.08658,1.20372-0.19048,1.99591-0.30688,2.37563c-0.02885,0.09445-0.06444,0.16286-0.09715,0.24577
		c-0.0943,0.23705-0.2001,0.43463-0.3242,0.56763c-0.00578,0.00577-0.0106,0.01735-0.01636,0.02312
		c-0.29248,0.4684-0.99377,0.70451-2.10399,0.70451h-1.22658v3.2507v0.79607h0.05099h4.06651h4.47154h1.3555h6.88239v-4.04677
		h-0.96394c-1.11404,0-1.83267-0.2419-2.15591-0.72763c-0.05002-0.07518-0.09138-0.15421-0.12219-0.23996
		c-0.05965-0.17735-0.13179-0.52911-0.21935-1.05627c-0.08852-0.52911-0.16162-1.6297-0.21933-3.29987
		c-0.05869-1.67209-0.11739-4.11904-0.17509-7.34565c-0.0587-3.22566-0.08852-7.68489-0.08852-13.37195
		c0-1.40803-0.21838-2.89124-0.65706-4.44576c-0.41367-1.46682-1.09865-2.8122-2.03375-4.04579
		c-0.05388-0.0723-0.10005-0.14841-0.15681-0.2188c-1.02263-1.28947-2.36562-2.34477-4.03091-3.16781
		c-1.66528-0.82111-3.72501-1.23071-6.17915-1.23071c-0.52527,0-1.02263,0.01833-1.50749,0.04723
		c-0.50604,0.02892-0.99571,0.07035-1.4575,0.13106c-1.55562,0.20432-2.86206,0.58308-3.91452,1.14109
		C209.66701,97.44073,209.5612,97.51879,209.44673,97.58432"/>
	<path class="st0" d="M99.54401,200.56174c0.03173-1.11313,0.11253-2.02963,0.24435-2.74956
		c0.12888-0.71896,0.32515-1.33574,0.58585-1.8475c0.2588-0.50883,0.58589-1.11409,0.97745-1.80989
		c0.84563-1.29819,2.06644-2.42671,3.66535-3.37793c1.59407-0.95122,3.2382-1.8215,4.9333-2.61081
		c2.34543-1.06877,4.31568-2.15877,5.91169-3.27286c1.59698-1.11504,2.89767-2.30046,3.9078-3.55237
		c1.01012-1.25383,1.74322-2.60019,2.19922-4.03903c0.456-1.43987,0.68401-3.04062,0.68401-4.80522
		c0-4.36386-1.49983-7.63673-4.49462-9.82056c-2.99676-2.18291-7.1335-3.2729-12.4093-3.2729
		c-4.30029,0-7.78573,0.91653-10.4554,2.7515c-2.67348,1.83401-4.00685,4.30696-4.00685,7.41505
		c0,1.25577,0.60126,2.34573,1.80669,3.27383c1.20542,0.93001,2.71967,1.39359,4.54465,1.39359
		c1.82304,0,3.32191-0.48766,4.49559-1.46202c1.17175-0.97624,1.75763-2.11252,1.75763-3.41357
		c0-2.41321-1.46519-4.01494-4.3965-4.80424c0.19529-0.55705,0.73212-1.0341,1.61239-1.42827
		c0.87833-0.39514,2.2627-0.59273,4.15309-0.59273c2.79855,0,4.98236,0.82498,6.54761,2.47202
		c1.56137,1.65089,2.34352,3.961,2.34352,6.93126c0,3.10999-0.6513,5.77861-1.9539,8.00774
		c-1.30357,2.22914-3.4537,4.15471-6.44852,5.78149c-2.28098,1.2076-4.31665,2.35637-6.10796,3.4454
		c-1.79227,1.0929-3.30653,2.36983-4.54368,3.83089c-1.23816,1.46391-2.18384,3.20346-2.8332,5.22446
		c-0.65227,2.02095-0.97742,4.5614-0.97742,7.6261v5.63982h30.78028v-7.59042h-3.42002c0,2.55392-0.94471,3.82993-2.83417,3.82993
		H99.49493v-2.78525C99.49493,203.13977,99.51034,201.67583,99.54401,200.56174"/>
	<path class="st0" d="M148.50716,207.22989c-0.42621-0.33344-0.76099-0.91554-1.00246-1.74823
		c-0.12216-0.61102-0.24242-1.36273-0.36559-2.24936c-0.12216-0.88954-0.22704-2.22337-0.31746-4.00148
		c-0.09236-1.77715-0.15199-4.13638-0.18279-7.08255c-0.03079-2.94424-0.04619-6.77707-0.04619-11.4994
		c0-7.44493,0.0154-13.74974,0.04619-18.91637c0.03079-5.1657,0.07504-9.0274,0.13661-11.58131h-4.28104
		c-0.06064,0.94447-0.3502,1.81857-0.86586,2.62427c-0.5166,0.80568-1.16983,1.51212-1.95966,2.12312
		c-0.7879,0.61198-1.68356,1.11313-2.68599,1.49959c-1.00246,0.39128-2.02028,0.61391-3.05157,0.66693v3.75089h4.09921
		c0.1828,1.61232,0.33289,4.18169,0.45601,7.70705c0.12025,3.52827,0.18085,7.5712,0.18085,12.12584
		c0,4.99992-0.01538,9.01389-0.04424,12.04103c-0.03174,3.02902-0.07793,5.41527-0.13661,7.16641
		c-0.06253,1.75111-0.13661,3.00011-0.22897,3.74797c-0.09042,0.75172-0.16833,1.29143-0.22704,1.62585
		c-0.18181,1.66632-1.064,2.50092-2.64272,2.50092h-1.4565v3.83281h17.58215v-3.83281h-1.00247
		C149.59904,207.73105,148.93042,207.56432,148.50716,207.22989"/>
</g>
</svg>
