<?xml version="1.0" encoding="utf-8"?>
<!-- Generator: Adobe Illustrator 19.2.1, SVG Export Plug-In . SVG Version: 6.00 Build 0)  -->
<svg version="1.1" id="Layer_1" xmlns="http://www.w3.org/2000/svg" xmlns:xlink="http://www.w3.org/1999/xlink" x="0px" y="0px"
	 viewBox="0 0 32 28.00738" style="enable-background:new 0 0 32 28.00738;" xml:space="preserve">
<style type="text/css">
	.st0{fill:#F7CDD3;}
</style>
<g>
	<path class="st0" d="M22.08794,20.52702c-3.39038-3.16107-6.78916-6.31254-10.18074-9.47601
		c-0.66991-0.62429-0.87401-1.40826-0.69993-2.30507c0.06963-0.34216,0.11645-0.68792,0.16568-1.03248
		c0.02521-0.15847,0.05162-0.31214,0.07684-0.47062c-0.01321,0-0.02761-0.0036-0.03962-0.0036
		c0.0012-0.06843,0.0036-0.14047,0.0012-0.2089c0-0.12726-0.0048-0.25452-0.01441-0.38178
		c-0.07203-0.94724-0.36257-1.80084-1.0661-2.48396C9.07148,2.94483,7.69083,1.88594,6.15172,1.04675
		C5.22849,0.54611,4.26924,0.15233,3.21035,0.02627c-1.84046-0.2209-3.20189,0.97125-3.2103,2.82251
		c-0.0036,0.76596,0.18609,1.4971,0.46582,2.20423c0.37457,0.95685,0.8596,1.84406,1.40345,2.69045
		c0.60388,0.94724,1.2894,1.84166,2.04935,2.68445c0.4346,0.48142,0.97485,0.78757,1.59554,0.96165
		c0.96165,0.26772,1.9269,0.22571,2.89935,0.04802c0.90882-0.16448,1.68559,0.09244,2.29067,0.78997
		c2.46595,2.84893,4.92109,5.71346,7.38584,8.56479c1.78163,2.05416,3.56686,4.10591,5.35569,6.15166
		c0.44301,0.50904,0.99406,0.8584,1.65797,1.00967c1.2894,0.28693,2.21984-0.60868,1.98573-1.90649
		c-0.12005-0.67111-0.45141-1.23538-0.94004-1.69639C24.8012,23.06981,23.44817,21.79601,22.08794,20.52702"/>
	<path class="st0" d="M12.75191,16.96604c-1.9389,1.67598-3.88021,3.34836-5.81671,5.02914
		c-0.89682,0.77916-1.79604,1.56073-2.68085,2.3543c-0.59188,0.52945-0.97726,1.18015-1.03848,1.99053
		c-0.05763,0.77916,0.35777,1.42386,1.0649,1.59915c0.26893,0.06603,0.56546,0.07563,0.83919,0.03962
		c0.68432-0.09004,1.25819-0.425,1.7252-0.92203c2.55839-2.72167,5.10838-5.44934,7.65957-8.17581
		c0.02281-0.02281,0.04202-0.05283,0.07203-0.09004c-0.56066-0.6507-1.11772-1.293-1.67958-1.9437
		C12.83835,16.89521,12.79393,16.92883,12.75191,16.96604"/>
	<path class="st0" d="M31.71187,3.90492c-1.09611,1.00127-2.19222,2.00013-3.29313,2.999
		c-0.39138,0.35537-0.77916,0.71913-1.17415,1.0733c-0.54625,0.48503-1.13453,0.92563-1.70239,1.38545
		c-0.08404,0.06363-0.18009,0.10565-0.27133,0.15847c-0.01921-0.05883-0.01681-0.09124-0.0036-0.11045
		c0.67711-0.8632,1.43107-1.65077,2.18142-2.44554c1.23298-1.30141,2.50317-2.5704,3.76135-3.8586
		c-0.08764-0.08884-0.18128-0.18129-0.27973-0.27973c-0.04562,0.03962-0.08764,0.07683-0.13086,0.11285
		c-1.42266,1.30501-2.83572,2.61122-4.27039,3.89942c-0.07924,0.06963-0.16568,0.13326-0.24491,0.19809
		c-0.52705,0.45741-1.0709,0.89322-1.61355,1.33022c-0.09725,0.07804-0.2125,0.13086-0.31695,0.19809
		c-0.0132-0.01801-0.02521-0.03362-0.04202-0.04802c0.03482-0.06243,0.06603-0.13086,0.10925-0.18609
		c0.14767-0.19209,0.29534-0.38538,0.45381-0.56786c0.2077-0.23531,0.43941-0.44541,0.6495-0.67591
		c1.31341-1.45148,2.67125-2.85853,4.06269-4.23437c0.23291-0.22931,0.47782-0.44661,0.75635-0.69993
		c-0.08284-0.06603-0.14287-0.09724-0.18249-0.14647c-0.04562-0.05162-0.07203-0.12006-0.10805-0.18128
		c-0.09244,0.08164-0.12966,0.11525-0.17048,0.15127c-1.48029,1.35423-2.95818,2.71566-4.45408,4.05669
		c-0.44781,0.40579-0.92923,0.77316-1.40225,1.14894c-0.09604,0.07563-0.18969,0.15367-0.28573,0.23291
		c-0.09244,0.07563-0.2077,0.12846-0.31215,0.19209c-0.0108-0.01441-0.02281-0.02641-0.03602-0.04082
		c0.03482-0.06243,0.05643-0.13086,0.09965-0.18729c0.04442-0.05763,0.09364-0.11285,0.14046-0.17288
		c0.13086-0.16688,0.26052-0.33856,0.40459-0.50063c1.63156-1.84166,3.36757-3.58127,5.12759-5.29687
		c0.07083-0.06843,0.15727-0.11525,0.23531-0.17408c-0.12966-0.14047-0.2161-0.23051-0.35056-0.37337
		c-0.04682,0.07204-0.07804,0.14767-0.13446,0.19449c-1.63036,1.48629-3.26072,2.97018-4.89828,4.44207
		c-0.40459,0.36137-0.8476,0.68072-1.2762,1.01447c-0.07083,0.05523-0.15847,0.08764-0.23771,0.13206l-0.03241-0.04202
		c0.03722-0.06843,0.06723-0.14167,0.11765-0.2005c0.16688-0.2197,0.33736-0.4394,0.51984-0.6459
		c1.65797-1.86807,3.41799-3.63169,5.20202-5.37731c0.04562-0.04082,0.08404-0.08764,0.12846-0.12966
		c-0.12246-0.16207-0.12486-0.16928-0.28093-0.08164c-0.27373,0.15847-0.55466,0.31215-0.81758,0.48863
		c-2.12019,1.41906-4.04949,3.07824-5.93196,4.79744c-0.59548,0.54866-0.97245,1.22697-1.23778,1.97252
		c-0.05162,0.13927-0.13206,0.26292-0.16808,0.40939c-0.14047,0.50784-0.25092,1.02528-0.19569,1.55352
		c0.09364,0.89202-0.15968,1.64116-0.84279,2.23304c-0.71794,0.61709-1.43347,1.23297-2.1514,1.85006
		c-0.05162,0.04562-0.09965,0.09004-0.15967,0.14407c0.49703,0.46462,0.98206,0.91363,1.47429,1.36984
		c0.05523-0.05643,0.09965-0.10205,0.14046-0.14887c0.62909-0.67832,1.25698-1.35663,1.88248-2.03255
		c0.56186-0.60148,1.26179-0.82118,2.06736-0.76115c0.32175,0.02281,0.6459,0.04442,0.96045,0.01561
		c1.23898-0.12246,2.3531-0.55346,3.2247-1.46828C27.4979,9.43349,28.57961,8.26295,29.6445,7.078
		c0.07684-0.08524,0.13686-0.18729,0.2113-0.27493c0.67472-0.76716,1.31701-1.55953,1.87167-2.41913
		C31.82112,4.23387,31.90996,4.079,32,3.92293c-0.05643-0.05403-0.10085-0.09725-0.16928-0.16448
		C31.7851,3.81608,31.75389,3.8677,31.71187,3.90492"/>
</g>
</svg>
