<svg xmlns="http://www.w3.org/2000/svg" xmlns:xlink="http://www.w3.org/1999/xlink" version="1.1" id="Layer_1" x="0px" y="0px" viewBox="0 0 100 100" xml:space="preserve" enable-background="new 0 0 100 100">
  <g>
    <path class="st0" d="M50 100C22.4 100 0 77.6 0 50 0 22.4 22.4 0 50 0c27.6 0 50 22.4 50 50C100 77.6 77.6 100 50 100zM50 6.9C26.2 6.9 6.9 26.2 6.9 50c0 23.8 19.3 43.1 43.1 43.1S93.1 73.8 93.1 50C93.1 26.2 73.8 6.9 50 6.9z"/>
    <polygon class="st0" points="44 69.4 39.1 64.5 53.6 50 39.1 35.5 44 30.6 63.3 50 "/>
  </g>
</svg>