<svg xmlns="http://www.w3.org/2000/svg" xmlns:xlink="http://www.w3.org/1999/xlink" version="1.1" id="Layer_1" x="0px" y="0px" viewBox="0 0 32 32" xml:space="preserve" enable-background="new 0 0 32 32">
  <path d="M27.1 7.2c-0.1-0.6-0.6-1.1-1.2-1.1h-3.3C22.3 2.7 19.4 0 16 0c-3.4 0-6.3 2.7-6.5 6.1H6.2C5.5 6.1 5 6.6 4.9 7.2L3.1 27.4l0.4 0.1 -0.4 0C3.1 30 5.4 32 8.2 32h15.6c2.8 0 5.1-2 5.1-4.5L27.1 7.2zM16 2.5c2 0 3.8 1.6 4 3.6h-8C12.2 4.1 13.9 2.5 16 2.5zM23.8 29.5H8.2c-1.4 0-2.5-0.9-2.6-2L7.3 8.6h2.1v2.2c0 0.7 0.6 1.3 1.3 1.3s1.3-0.6 1.3-1.3V8.6H20v2.2c0 0.7 0.6 1.3 1.3 1.3 0.7 0 1.3-0.6 1.3-1.3V8.6h2.1l1.7 18.9C26.4 28.6 25.2 29.5 23.8 29.5z"/>
</svg>