<?xml version="1.0" encoding="utf-8"?>
<!-- Generator: Adobe Illustrator 19.2.1, SVG Export Plug-In . SVG Version: 6.00 Build 0)  -->
<svg version="1.1" id="Layer_1" xmlns="http://www.w3.org/2000/svg" xmlns:xlink="http://www.w3.org/1999/xlink" x="0px" y="0px"
	 viewBox="0 0 22 32" style="enable-background:new 0 0 22 32;" xml:space="preserve">
<path d="M21.4,3h-1.3V0.6c0-0.2-0.1-0.4-0.3-0.6c-0.2-0.1-0.4-0.1-0.6,0L14,3H0.6C0.3,3,0,3.3,0,3.6c0,0,0,0,0,0v2.9
	c0,0.4,0.3,0.6,0.6,0.6c0,0,0,0,0,0h1l2.1,24.2C3.7,31.7,4,32,4.3,32h13.3c0.3,0,0.6-0.3,0.6-0.6l2.1-24.2h1c0.3,0,0.6-0.3,0.6-0.6
	c0,0,0,0,0,0V3.6C22,3.3,21.7,3,21.4,3z M18.8,1.7V3h-2.3L18.8,1.7z M17.1,30.7H4.9L2.8,7.2h16.3L17.1,30.7z M20.7,5.9H1.3V4.3h19.5
	V5.9z M15.8,12.4H6.2c-0.3,0-0.6,0.3-0.6,0.6c0,0,0,0,0,0v11.3c0,0.4,0.3,0.6,0.6,0.6c0,0,0,0,0,0h9.5c0.3,0,0.6-0.3,0.6-0.6
	c0,0,0,0,0,0V13C16.4,12.7,16.1,12.4,15.8,12.4L15.8,12.4z M15.1,23.7H6.9V13.6h8.3V23.7L15.1,23.7z M13.8,21.7h-2.1
	c-0.3,0-0.6,0.3-0.6,0.7c0,0.3,0.3,0.6,0.6,0.6h2.1c0.3,0,0.6-0.3,0.6-0.7C14.4,22,14.1,21.8,13.8,21.7z M9.6,21.7H9.1
	c-0.3,0-0.6,0.3-0.6,0.7c0,0.3,0.3,0.6,0.6,0.6h0.5c0.3,0,0.6-0.3,0.6-0.7C10.2,22,9.9,21.8,9.6,21.7z"/>
</svg>
