<svg xmlns="http://www.w3.org/2000/svg" xmlns:xlink="http://www.w3.org/1999/xlink" version="1.1" id="Layer_1" x="0px" y="0px" viewBox="0 0 32 32" xml:space="preserve" enable-background="new 0 0 32 32">
  <g>
    <path d="M29.6 4.2H2.3C1.1 4.2 0 5.4 0 6.7v18.6c0 1.4 1.1 2.4 2.4 2.4h27.1c1.4 0 2.4-1.2 2.4-2.4V6.7C32 5.3 30.8 4.2 29.6 4.2zM29.7 26c-0.2 0.2-0.4 0.3-0.7 0.3 -0.3 0-0.5-0.1-0.7-0.3l-8.9-8.6 -2.5 2.2c-0.4 0.3-1 0.3-1.4 0l-2.4-2.2 -9 8.5c-0.2 0.1-0.5 0.2-0.7 0.2 -0.3 0-0.5-0.1-0.7-0.3 -0.3-0.4-0.3-1.1 0.1-1.5l8.9-8.4L2.5 7.9C2.1 7.5 2.1 6.9 2.4 6.5c0.3-0.4 1-0.5 1.4-0.1l9.6 8.7c0.1 0 0.2 0.1 0.2 0.1l2.3 2.1 12.2-11c0.3-0.3 1.1-0.3 1.4 0.1 0.3 0.4 0.3 1.1-0.1 1.5l-8.8 7.9 9 8.7C30 24.9 30.1 25.5 29.7 26z"/>
  </g>
</svg>