<svg xmlns="http://www.w3.org/2000/svg" xmlns:xlink="http://www.w3.org/1999/xlink" version="1.1" id="Layer_1" x="0px" y="0px" viewBox="0 0 34 26" xml:space="preserve" enable-background="new 0 0 34 26">
  <path fill="#fff" d="M29.8 0H4.2C1.9 0 0 1.9 0 4.2c0 0 0 0 0 0v17.6C0 24.1 1.9 26 4.2 26c0 0 0 0 0 0h25.7c2.3 0 4.2-1.9 4.2-4.2 0 0 0 0 0 0V4.2C34 1.9 32.2 0 29.8 0 29.9 0 29.9 0 29.8 0zM32.1 21.8c0 1.2-1 2.3-2.3 2.3H4.2c-1.3 0-2.3-1-2.3-2.3V4.2c0-1.2 1-2.3 2.2-2.3 0 0 0 0 0 0h25.7c1.2 0 2.3 1 2.3 2.3 0 0 0 0 0 0L32.1 21.8 32.1 21.8 32.1 21.8zM21.4 12.8l8.3-7.5c0.4-0.4 0.4-1 0.1-1.4 -0.3-0.4-1-0.4-1.3-0.1 0 0 0 0 0 0L17 14.2l-2.2-2c0 0 0 0 0 0 0 0-0.1-0.1-0.2-0.1L5.5 3.9c-0.4-0.4-1-0.3-1.3 0.1 0 0 0 0 0 0 -0.3 0.4-0.3 1 0.1 1.4l8.4 7.5 -8.4 7.9c-0.4 0.4-0.4 1-0.1 1.4 0.2 0.2 0.4 0.3 0.7 0.3 0.2 0 0.5-0.1 0.7-0.2l8.5-8 2.3 2.1c0.4 0.3 0.9 0.3 1.3 0l2.4-2.1 8.4 8.1c0.2 0.2 0.4 0.3 0.7 0.3 0.3 0 0.5-0.1 0.7-0.3 0.4-0.4 0.3-1 0-1.4L21.4 12.8z"/>
</svg>