<svg xmlns="http://www.w3.org/2000/svg" xmlns:xlink="http://www.w3.org/1999/xlink" version="1.1" id="Layer_1" x="0px" y="0px" viewBox="0 0 32 32" xml:space="preserve" enable-background="new 0 0 32 32">
  <path d="M23.9 5c3 0 5.4 2.4 5.4 5.4 0 1.3-0.5 2.5-1.3 3.5l-0.2 0.3c0 0-0.1 0.1-0.1 0.1l0 0 0 0L16 25.8 4.5 14.3l0 0 0 0c-0.1 0-0.1-0.1-0.1-0.1L4 13.9c-0.8-1-1.3-2.2-1.3-3.5 0-3 2.4-5.4 5.4-5.4 1.5 0 3 0.7 4 1.8l0.1 0.1L12.2 7 14 8.8l2 2 2-2L19.8 7l0.1-0.1 0.1-0.1C20.9 5.7 22.4 5 23.9 5M23.9 2.3c-2.4 0-4.6 1.1-6.1 2.7L16 6.8 14.2 5c-1.5-1.7-3.6-2.7-6.1-2.7C3.6 2.3 0 5.9 0 10.4c0 2 0.7 3.9 2 5.3L2.3 16c0.1 0.1 0.2 0.2 0.3 0.3L16 29.7h0l13.5-13.5c0.1-0.1 0.2-0.2 0.3-0.3l0.3-0.3c1.2-1.4 2-3.3 2-5.3C32 5.9 28.4 2.3 23.9 2.3L23.9 2.3z"/>
</svg>
